G04*
G04 #@! TF.GenerationSoftware,Altium Limited,Altium Designer,20.2.3 (150)*
G04*
G04 Layer_Physical_Order=1*
G04 Layer_Color=255*
%FSLAX44Y44*%
%MOMM*%
G71*
G04*
G04 #@! TF.SameCoordinates,CE7551EE-2CAC-49A0-A575-A5F11EB50F32*
G04*
G04*
G04 #@! TF.FilePolarity,Positive*
G04*
G01*
G75*
%ADD10C,0.2000*%
%ADD11C,0.3000*%
%ADD14C,0.2540*%
%ADD15C,0.4000*%
%ADD18R,1.2100X0.5900*%
G04:AMPARAMS|DCode=19|XSize=0.9mm|YSize=2.8mm|CornerRadius=0.018mm|HoleSize=0mm|Usage=FLASHONLY|Rotation=90.000|XOffset=0mm|YOffset=0mm|HoleType=Round|Shape=RoundedRectangle|*
%AMROUNDEDRECTD19*
21,1,0.9000,2.7640,0,0,90.0*
21,1,0.8640,2.8000,0,0,90.0*
1,1,0.0360,1.3820,0.4320*
1,1,0.0360,1.3820,-0.4320*
1,1,0.0360,-1.3820,-0.4320*
1,1,0.0360,-1.3820,0.4320*
%
%ADD19ROUNDEDRECTD19*%
%ADD20R,5.0000X2.5000*%
G04:AMPARAMS|DCode=21|XSize=0.26mm|YSize=1.1mm|CornerRadius=0.0091mm|HoleSize=0mm|Usage=FLASHONLY|Rotation=0.000|XOffset=0mm|YOffset=0mm|HoleType=Round|Shape=RoundedRectangle|*
%AMROUNDEDRECTD21*
21,1,0.2600,1.0818,0,0,0.0*
21,1,0.2418,1.1000,0,0,0.0*
1,1,0.0182,0.1209,-0.5409*
1,1,0.0182,-0.1209,-0.5409*
1,1,0.0182,-0.1209,0.5409*
1,1,0.0182,0.1209,0.5409*
%
%ADD21ROUNDEDRECTD21*%
G04:AMPARAMS|DCode=22|XSize=0.26mm|YSize=1.1mm|CornerRadius=0.0091mm|HoleSize=0mm|Usage=FLASHONLY|Rotation=270.000|XOffset=0mm|YOffset=0mm|HoleType=Round|Shape=RoundedRectangle|*
%AMROUNDEDRECTD22*
21,1,0.2600,1.0818,0,0,270.0*
21,1,0.2418,1.1000,0,0,270.0*
1,1,0.0182,-0.5409,-0.1209*
1,1,0.0182,-0.5409,0.1209*
1,1,0.0182,0.5409,0.1209*
1,1,0.0182,0.5409,-0.1209*
%
%ADD22ROUNDEDRECTD22*%
%ADD23R,0.3000X0.5000*%
%ADD24R,0.7500X0.7000*%
%ADD25R,0.5400X0.6000*%
%ADD26R,0.5600X0.6300*%
%ADD27R,0.5400X0.6000*%
%ADD28R,0.6350X0.6350*%
%ADD29R,1.1600X1.4700*%
%ADD30R,0.6300X0.5600*%
%ADD31R,0.5000X0.3000*%
%ADD54R,3.7000X3.7000*%
%ADD55C,0.2500*%
%ADD56C,0.5000*%
%ADD57C,0.3810*%
%ADD58C,1.4080*%
%ADD59R,1.4080X1.4080*%
%ADD60C,3.3160*%
%ADD61C,1.3000*%
%ADD62R,1.4080X1.4080*%
%ADD63C,6.5000*%
%ADD64C,0.6000*%
G36*
X2200000Y960000D02*
Y520000D01*
X2145000Y465000D01*
X2018190D01*
X2017704Y466173D01*
X2030765Y479235D01*
X2031082Y480000D01*
Y699552D01*
X2035448Y703918D01*
X2072500D01*
X2073265Y704235D01*
X2073265Y704235D01*
X2078265Y709235D01*
X2078582Y710000D01*
Y725000D01*
X2078265Y725765D01*
X2078265Y725765D01*
X2070765Y733265D01*
X2070000Y733582D01*
X2040000D01*
X2039235Y733265D01*
X2039235Y733265D01*
X2029552Y723582D01*
X2010000D01*
X2010000Y723582D01*
X2009235Y723265D01*
X2004235Y718265D01*
X2003918Y717500D01*
Y690000D01*
X2003918Y690000D01*
X2004235Y689235D01*
X2006735Y686735D01*
X2007500Y686418D01*
X2012052D01*
X2013918Y684552D01*
Y667948D01*
X2009552Y663582D01*
X2008120D01*
Y663800D01*
X1999820D01*
Y663582D01*
X1980448D01*
X1978582Y665448D01*
Y682500D01*
X1978582Y682500D01*
X1978265Y683265D01*
X1975765Y685765D01*
X1975000Y686082D01*
X1937500D01*
X1937500Y686082D01*
X1936735Y685765D01*
X1934352Y683383D01*
X1933804Y683455D01*
X1933082Y683773D01*
Y684000D01*
X1932765Y684765D01*
X1932765Y684765D01*
X1931265Y686265D01*
X1930500Y686582D01*
X1924948D01*
X1924082Y687448D01*
Y697052D01*
X1924948Y697918D01*
X1976500D01*
X1977265Y698235D01*
X1980765Y701735D01*
X1981082Y702500D01*
X1981082Y759353D01*
X1982352Y759714D01*
X1982698Y759198D01*
X1987698Y754198D01*
X1988524Y753645D01*
X1989500Y753451D01*
X1994660D01*
Y752000D01*
X2002060D01*
Y760000D01*
X1994660D01*
Y758549D01*
X1990556D01*
X1987049Y762056D01*
Y764465D01*
X1986855Y765441D01*
X1986302Y766268D01*
X1979880Y772690D01*
X1980366Y773863D01*
X1987750D01*
X1987750Y773863D01*
X1993978D01*
X1994475Y773366D01*
Y771405D01*
X1994500Y771279D01*
Y768500D01*
X1996355D01*
X1996708Y768264D01*
X1997842Y768038D01*
X1998190D01*
X1999323Y768264D01*
X1999677Y768500D01*
X2001500D01*
Y770121D01*
X2005067Y773688D01*
X2019920D01*
X2026473Y767135D01*
Y758777D01*
X2026698Y757643D01*
X2027341Y756682D01*
X2033292Y750731D01*
X2034253Y750089D01*
X2035387Y749863D01*
X2039946D01*
X2040403Y749407D01*
Y741680D01*
X2040777Y740777D01*
X2041680Y740403D01*
X2069320D01*
X2070223Y740777D01*
X2070597Y741680D01*
Y750320D01*
X2070223Y751223D01*
X2069320Y751597D01*
X2046167D01*
X2046142Y751727D01*
X2045499Y752688D01*
X2043268Y754919D01*
X2042706Y755294D01*
X2042675Y755385D01*
Y756616D01*
X2042706Y756706D01*
X2043268Y757081D01*
X2045499Y759313D01*
X2046142Y760273D01*
X2046167Y760403D01*
X2069320D01*
X2070223Y760777D01*
X2070597Y761680D01*
Y770320D01*
X2070223Y771223D01*
X2069320Y771597D01*
X2041680D01*
X2040777Y771223D01*
X2040403Y770320D01*
Y762593D01*
X2039946Y762137D01*
X2039244D01*
X2038747Y762634D01*
Y770992D01*
X2038522Y772126D01*
X2037879Y773087D01*
X2025872Y785094D01*
X2024911Y785736D01*
X2023777Y785962D01*
X2005227D01*
X2003783Y787406D01*
X2003400Y787979D01*
X2001500Y789879D01*
Y791500D01*
X1999677D01*
X1999323Y791737D01*
X1998190Y791962D01*
X1997842D01*
X1996708Y791737D01*
X1996355Y791500D01*
X1994500D01*
Y788721D01*
X1994475Y788595D01*
Y786634D01*
X1993978Y786137D01*
X1990380D01*
X1990380Y786137D01*
X1982227D01*
X1977962Y790402D01*
Y797980D01*
X1977737Y799114D01*
X1977094Y800075D01*
X1966725Y810444D01*
X1965764Y811087D01*
X1964630Y811312D01*
X1953564D01*
X1953078Y812485D01*
X1953302Y812710D01*
X1953855Y813537D01*
X1954049Y814512D01*
Y817650D01*
X1958300D01*
Y834350D01*
X1944700D01*
Y828549D01*
X1940556D01*
X1936302Y832802D01*
X1935475Y833355D01*
X1934500Y833549D01*
X1933500D01*
Y835500D01*
X1931299D01*
Y836750D01*
X1931105Y837726D01*
X1930552Y838552D01*
X1928994Y840111D01*
Y842075D01*
X1930620D01*
Y850425D01*
X1923000D01*
X1922270Y850425D01*
X1921000Y850425D01*
X1913380D01*
Y842075D01*
X1915006D01*
Y840327D01*
X1914742Y840063D01*
X1893757D01*
X1892782Y839869D01*
X1891955Y839316D01*
X1890198Y837559D01*
X1889645Y836732D01*
X1889451Y835757D01*
Y834350D01*
X1885200D01*
Y817650D01*
X1889451D01*
Y808875D01*
X1889645Y807900D01*
X1890198Y807073D01*
X1898073Y799198D01*
X1898639Y798819D01*
X1898396Y797549D01*
X1888556D01*
X1878302Y807802D01*
X1877475Y808355D01*
X1876500Y808549D01*
X1858675D01*
Y810175D01*
X1850325D01*
Y801825D01*
X1858675D01*
Y803451D01*
X1875444D01*
X1885698Y793198D01*
X1886525Y792645D01*
X1887500Y792451D01*
X1899944D01*
X1904341Y788054D01*
Y786502D01*
X1903071Y785976D01*
X1900523Y788523D01*
X1899366Y789297D01*
X1898000Y789569D01*
X1890859D01*
X1890561Y789768D01*
X1889000Y790078D01*
X1887439Y789768D01*
X1886116Y788884D01*
X1885232Y787561D01*
X1884922Y786000D01*
X1885232Y784439D01*
X1886116Y783116D01*
X1887439Y782232D01*
X1889000Y781922D01*
X1890561Y782232D01*
X1890859Y782431D01*
X1896522D01*
X1898857Y780097D01*
X1899341Y779773D01*
Y777556D01*
X1899336Y777554D01*
X1898990Y776719D01*
Y766723D01*
X1898720Y765820D01*
X1897817Y765550D01*
X1887821D01*
X1886986Y765204D01*
X1886918Y765039D01*
X1886317D01*
X1886317Y765039D01*
X1885537Y764884D01*
X1884875Y764442D01*
X1883848Y765167D01*
X1862448Y786567D01*
X1861786Y787009D01*
X1861006Y787164D01*
X1858039D01*
Y789500D01*
X1859500D01*
Y794500D01*
X1852500D01*
Y789500D01*
X1853961D01*
Y787164D01*
X1841779D01*
X1841779Y787164D01*
X1827845D01*
X1823039Y791970D01*
Y861155D01*
X1838845Y876961D01*
X1891346D01*
X1892126Y877116D01*
X1892788Y877558D01*
X1897067Y881837D01*
X1897067Y881837D01*
X1897509Y882498D01*
X1897664Y883279D01*
X1897664Y883279D01*
Y906780D01*
X1899898Y909014D01*
X1899945Y908977D01*
X1901901Y908167D01*
X1904000Y907891D01*
X1906099Y908167D01*
X1908055Y908977D01*
X1909734Y910266D01*
X1911023Y911945D01*
X1911833Y913901D01*
X1912109Y916000D01*
X1911833Y918099D01*
X1911023Y920055D01*
X1909734Y921734D01*
X1908055Y923023D01*
X1906099Y923833D01*
X1904000Y924109D01*
X1901901Y923833D01*
X1899945Y923023D01*
X1898266Y921734D01*
X1896977Y920055D01*
X1896167Y918099D01*
X1895891Y916000D01*
X1896167Y913901D01*
X1896977Y911945D01*
X1897014Y911898D01*
X1894879Y909763D01*
X1894792Y909706D01*
X1893208D01*
X1893121Y909763D01*
X1890986Y911898D01*
X1891023Y911945D01*
X1891833Y913901D01*
X1892109Y916000D01*
X1891833Y918099D01*
X1891023Y920055D01*
X1889734Y921734D01*
X1888055Y923023D01*
X1886099Y923833D01*
X1884000Y924109D01*
X1881901Y923833D01*
X1879945Y923023D01*
X1878266Y921734D01*
X1876977Y920055D01*
X1876167Y918099D01*
X1875891Y916000D01*
X1876167Y913901D01*
X1876977Y911945D01*
X1878266Y910266D01*
X1879945Y908977D01*
X1881901Y908167D01*
X1884000Y907891D01*
X1886099Y908167D01*
X1888055Y908977D01*
X1888102Y909014D01*
X1890336Y906780D01*
Y885470D01*
X1889155Y884289D01*
X1836654D01*
X1836654Y884289D01*
X1835873Y884134D01*
X1835212Y883692D01*
X1816308Y864788D01*
X1815866Y864127D01*
X1815711Y863346D01*
Y789779D01*
X1815866Y788998D01*
X1816308Y788337D01*
X1824212Y780433D01*
X1824212Y780433D01*
X1824874Y779991D01*
X1825654Y779836D01*
X1843125D01*
X1843125Y779836D01*
X1853961D01*
Y777500D01*
X1852500D01*
Y772500D01*
X1859500D01*
Y777355D01*
X1860501Y778150D01*
X1881058Y757593D01*
X1881058Y757593D01*
X1881720Y757151D01*
X1882500Y756996D01*
X1882500Y756996D01*
X1884757D01*
X1884875Y756878D01*
X1884875Y756878D01*
X1885537Y756436D01*
X1886317Y756281D01*
X1886317Y756280D01*
Y755040D01*
X1886317Y755039D01*
X1885537Y754884D01*
X1884875Y754442D01*
X1884875Y754442D01*
X1884757Y754324D01*
X1876160D01*
X1875379Y754169D01*
X1874718Y753727D01*
X1874718Y753727D01*
X1865155Y744164D01*
X1858039D01*
Y746500D01*
X1859500D01*
Y751500D01*
X1852500D01*
Y746500D01*
X1853961D01*
Y744164D01*
X1839279D01*
X1839279Y744164D01*
X1822845D01*
X1808039Y758970D01*
Y827346D01*
X1808039Y827346D01*
X1807884Y828127D01*
X1807442Y828788D01*
X1807442Y828788D01*
X1797163Y839067D01*
X1796501Y839509D01*
X1795721Y839664D01*
X1762220D01*
X1759986Y841898D01*
X1760023Y841945D01*
X1760833Y843901D01*
X1761109Y846000D01*
X1760833Y848099D01*
X1760023Y850055D01*
X1758734Y851734D01*
X1757544Y852648D01*
X1757975Y853918D01*
X1765000D01*
X1765000Y853918D01*
X1765765Y854235D01*
X1770765Y859235D01*
X1771082Y860000D01*
Y875000D01*
X1771082Y875000D01*
X1770765Y875765D01*
X1765765Y880765D01*
X1765000Y881082D01*
X1715448D01*
X1706082Y890448D01*
Y934552D01*
X1740448Y968918D01*
X1904552D01*
X1913918Y959552D01*
Y905000D01*
X1913918Y905000D01*
X1914235Y904235D01*
X1919235Y899235D01*
X1920000Y898918D01*
X1935000D01*
X1935765Y899235D01*
X1935765Y899235D01*
X1940765Y904235D01*
X1941082Y905000D01*
Y934714D01*
X1942352Y934777D01*
X1942374Y934554D01*
X1943380Y931240D01*
X1945012Y928186D01*
X1947209Y925509D01*
X1949886Y923312D01*
X1952940Y921680D01*
X1956254Y920674D01*
X1959700Y920335D01*
X1963146Y920674D01*
X1966460Y921680D01*
X1969514Y923312D01*
X1972191Y925509D01*
X1974388Y928186D01*
X1976020Y931240D01*
X1977026Y934554D01*
X1977365Y938000D01*
X1977026Y941446D01*
X1976020Y944760D01*
X1974388Y947814D01*
X1972191Y950491D01*
X1969514Y952688D01*
X1966460Y954320D01*
X1963146Y955326D01*
X1959700Y955665D01*
X1956254Y955326D01*
X1952940Y954320D01*
X1949886Y952688D01*
X1947209Y950491D01*
X1945012Y947814D01*
X1943380Y944760D01*
X1942374Y941446D01*
X1942352Y941224D01*
X1941082Y941286D01*
Y995000D01*
X1940765Y995765D01*
X1940765Y995765D01*
X1930765Y1005765D01*
X1930000Y1006082D01*
X1715000D01*
X1714235Y1005765D01*
X1664235Y955765D01*
X1663918Y955000D01*
Y507742D01*
X1662744Y507256D01*
X1660000Y510000D01*
Y960000D01*
X1710000Y1010000D01*
X2150000D01*
X2200000Y960000D01*
D02*
G37*
G36*
X1940000Y995000D02*
Y905000D01*
X1935000Y900000D01*
X1920000D01*
X1915000Y905000D01*
Y960000D01*
X1905000Y970000D01*
X1740000D01*
X1705000Y935000D01*
Y890000D01*
X1715000Y880000D01*
X1765000D01*
X1770000Y875000D01*
Y860000D01*
X1765000Y855000D01*
X1710000D01*
X1695000Y840000D01*
Y700000D01*
X1705000Y690000D01*
X1770000D01*
X1775000Y685000D01*
Y670000D01*
X1770000Y665000D01*
X1705000D01*
X1695000Y655000D01*
Y535000D01*
X1725000Y505000D01*
X1830000D01*
X1845000Y520000D01*
Y544491D01*
X1845626Y546554D01*
X1845965Y550000D01*
X1845626Y553446D01*
X1845000Y555509D01*
Y585000D01*
X1850000Y590000D01*
X1870000D01*
X1879781Y580219D01*
X1879796Y580113D01*
X1879717Y578847D01*
X1878266Y577734D01*
X1876977Y576055D01*
X1876167Y574099D01*
X1875891Y572000D01*
X1876167Y569901D01*
X1876977Y567945D01*
X1878266Y566266D01*
X1879945Y564977D01*
X1880000Y564954D01*
Y515000D01*
X1890000Y505000D01*
X1975000D01*
X1985000Y515000D01*
Y642500D01*
X1980000Y647500D01*
X1937500D01*
X1935000Y650000D01*
Y660000D01*
X1937500Y662500D01*
X1965000D01*
X1967500Y665000D01*
Y670000D01*
X1965000Y672500D01*
X1937500D01*
X1935000Y675000D01*
Y682500D01*
X1935000D01*
X1937500Y685000D01*
X1975000D01*
X1977500Y682500D01*
Y665000D01*
X1980000Y662500D01*
X2010000D01*
X2015000Y667500D01*
Y685000D01*
X2012500Y687500D01*
X2007500D01*
X2005000Y690000D01*
Y717500D01*
X2010000Y722500D01*
X2030000D01*
X2040000Y732500D01*
X2070000D01*
X2077500Y725000D01*
Y710000D01*
X2072500Y705000D01*
X2035000D01*
X2030000Y700000D01*
Y480000D01*
X2015000Y465000D01*
X1700000D01*
X1665000Y500000D01*
Y955000D01*
X1715000Y1005000D01*
X1930000D01*
X1940000Y995000D01*
D02*
G37*
G36*
X1923896Y841177D02*
Y839055D01*
X1924090Y838080D01*
X1924643Y837253D01*
X1925125Y836770D01*
X1924599Y835500D01*
X1924000D01*
Y826770D01*
X1924000Y826500D01*
Y825500D01*
X1924000Y825230D01*
Y816500D01*
X1933500D01*
Y825230D01*
X1933500Y825500D01*
Y826500D01*
X1933500Y826736D01*
X1934673Y827222D01*
X1937698Y824198D01*
X1938524Y823645D01*
X1939500Y823451D01*
X1944700D01*
Y817650D01*
X1948951D01*
Y815568D01*
X1948687Y815304D01*
X1936545D01*
X1935570Y815110D01*
X1934743Y814557D01*
X1920093Y799907D01*
X1919540Y799080D01*
X1919346Y798105D01*
X1919395Y797861D01*
X1919341Y797590D01*
Y793975D01*
X1918538Y793592D01*
X1918071Y793534D01*
X1908802Y802802D01*
X1907975Y803355D01*
X1907000Y803549D01*
X1900931D01*
X1894549Y809931D01*
Y817650D01*
X1898800D01*
Y823451D01*
X1903444D01*
X1907698Y819198D01*
X1908524Y818645D01*
X1909500Y818451D01*
X1910500D01*
Y816500D01*
X1920000D01*
Y825500D01*
X1920000D01*
Y826500D01*
X1920000D01*
Y835500D01*
X1919185D01*
X1918658Y836770D01*
X1919357Y837469D01*
X1919910Y838296D01*
X1920104Y839271D01*
Y841177D01*
X1921002Y842075D01*
X1921730D01*
X1922998Y842075D01*
X1923896Y841177D01*
D02*
G37*
G36*
X1748456Y852648D02*
X1747266Y851734D01*
X1745977Y850055D01*
X1745167Y848099D01*
X1744891Y846000D01*
X1745167Y843901D01*
X1745977Y841945D01*
X1747266Y840266D01*
X1748945Y838977D01*
X1750901Y838167D01*
X1753000Y837891D01*
X1755099Y838167D01*
X1757055Y838977D01*
X1757102Y839014D01*
X1759237Y836879D01*
X1759294Y836792D01*
Y835208D01*
X1759237Y835121D01*
X1757102Y832986D01*
X1757055Y833023D01*
X1755099Y833833D01*
X1753000Y834109D01*
X1750901Y833833D01*
X1748945Y833023D01*
X1747266Y831734D01*
X1745977Y830055D01*
X1745167Y828099D01*
X1744891Y826000D01*
X1745167Y823901D01*
X1745977Y821945D01*
X1747266Y820266D01*
X1748945Y818977D01*
X1750901Y818167D01*
X1753000Y817891D01*
X1755099Y818167D01*
X1757055Y818977D01*
X1758734Y820266D01*
X1760023Y821945D01*
X1760833Y823901D01*
X1761109Y826000D01*
X1760833Y828099D01*
X1760023Y830055D01*
X1759986Y830102D01*
X1762220Y832336D01*
X1793530D01*
X1800711Y825155D01*
Y756779D01*
X1800866Y755998D01*
X1801308Y755337D01*
X1819212Y737433D01*
X1819212Y737433D01*
X1819873Y736991D01*
X1820654Y736836D01*
X1840625D01*
X1840625Y736836D01*
X1853961D01*
Y734500D01*
X1852500D01*
Y729500D01*
X1859500D01*
Y734500D01*
X1858039D01*
Y736836D01*
X1867346D01*
X1868126Y736991D01*
X1868788Y737433D01*
X1878002Y746647D01*
X1878561Y746559D01*
X1878868Y745689D01*
X1878896Y745221D01*
X1868498Y734824D01*
X1866278D01*
X1865000Y735078D01*
X1863439Y734768D01*
X1862116Y733884D01*
X1861232Y732561D01*
X1860922Y731000D01*
X1861232Y729439D01*
X1862116Y728116D01*
X1863439Y727232D01*
X1865000Y726922D01*
X1866561Y727232D01*
X1867884Y728116D01*
X1868175Y728552D01*
X1869346Y728517D01*
X1869845Y727414D01*
X1868517Y726087D01*
X1868075Y725425D01*
X1867920Y724645D01*
Y714100D01*
X1860770Y706951D01*
X1859500Y707477D01*
Y711500D01*
X1852500D01*
Y706500D01*
X1853961D01*
Y704164D01*
X1840779D01*
X1840779Y704164D01*
X1823654D01*
X1822873Y704009D01*
X1822212Y703567D01*
X1822212Y703567D01*
X1811308Y692663D01*
X1810866Y692002D01*
X1810711Y691221D01*
Y651845D01*
X1807530Y648664D01*
X1763220D01*
X1760986Y650898D01*
X1761023Y650945D01*
X1761833Y652901D01*
X1762109Y655000D01*
X1761833Y657099D01*
X1761023Y659055D01*
X1759734Y660734D01*
X1758055Y662023D01*
X1756547Y662648D01*
X1756799Y663918D01*
X1770000D01*
X1770765Y664235D01*
X1770765Y664235D01*
X1775765Y669235D01*
X1776082Y670000D01*
Y685000D01*
X1776082Y685000D01*
X1775765Y685765D01*
X1770765Y690765D01*
X1770000Y691082D01*
X1705448D01*
X1696082Y700448D01*
Y839552D01*
X1710448Y853918D01*
X1748025D01*
X1748456Y852648D01*
D02*
G37*
G36*
X1965688Y794123D02*
Y786545D01*
X1965914Y785411D01*
X1966556Y784451D01*
X1969284Y781722D01*
X1968798Y780549D01*
X1957036D01*
X1956701Y781138D01*
X1956516Y781819D01*
X1957291Y782979D01*
X1957601Y784540D01*
X1957291Y786101D01*
X1956407Y787424D01*
X1955084Y788308D01*
X1953523Y788618D01*
X1951962Y788308D01*
X1950826Y787549D01*
X1943317D01*
X1942342Y787355D01*
X1941515Y786802D01*
X1940962Y785975D01*
X1940851Y785418D01*
X1935867Y780434D01*
X1934597Y780960D01*
Y791408D01*
X1942227Y799038D01*
X1960773D01*
X1965688Y794123D01*
D02*
G37*
G36*
X1977008Y768353D02*
X1976482Y767083D01*
X1945040Y767082D01*
X1944985Y767087D01*
X1944160Y767511D01*
X1943770Y767950D01*
Y775016D01*
X1944205Y775451D01*
X1969909D01*
X1977008Y768353D01*
D02*
G37*
G36*
X1940171Y764720D02*
X1940842D01*
X1941917Y764005D01*
X1941917Y764005D01*
X1941918Y757999D01*
X1942235Y757234D01*
X1942235Y757234D01*
X1942235Y757234D01*
X1943006Y756463D01*
X1943286Y755204D01*
X1942940Y754369D01*
Y751951D01*
X1943286Y751116D01*
X1944121Y750770D01*
X1954939D01*
X1955035Y750810D01*
X1957467Y748378D01*
X1958212Y747881D01*
X1958357Y747852D01*
X1958228Y746582D01*
X1944000D01*
X1943235Y746265D01*
X1943235Y746265D01*
X1941735Y744765D01*
X1941418Y744000D01*
Y742500D01*
X1941735Y741735D01*
X1941735Y741735D01*
X1943235Y740235D01*
X1944000Y739918D01*
X1958552D01*
X1960918Y737552D01*
X1960918Y709948D01*
X1958552Y707582D01*
X1943885Y707582D01*
X1943424Y708766D01*
X1943770Y709601D01*
Y719597D01*
X1944040Y720500D01*
X1944943Y720770D01*
X1954939D01*
X1955774Y721116D01*
X1956120Y721951D01*
Y724369D01*
X1955774Y725204D01*
Y726116D01*
X1955938Y726511D01*
X1956120Y726951D01*
Y729369D01*
X1955774Y730204D01*
Y731116D01*
X1955938Y731511D01*
X1956120Y731951D01*
Y734369D01*
X1955774Y735204D01*
X1954939Y735550D01*
X1944121D01*
X1943286Y735204D01*
X1942940Y734369D01*
Y731951D01*
X1943286Y731116D01*
Y730204D01*
X1943122Y729809D01*
X1942940Y729369D01*
Y726951D01*
X1943286Y726116D01*
Y725204D01*
X1943122Y724809D01*
X1942940Y724369D01*
Y722773D01*
X1942670Y721870D01*
X1941767Y721600D01*
X1940171D01*
X1939336Y721254D01*
X1938424D01*
X1938029Y721418D01*
X1937589Y721600D01*
X1935171D01*
X1934336Y721254D01*
X1933424D01*
X1933029Y721418D01*
X1932589Y721600D01*
X1930171D01*
X1929336Y721254D01*
X1929287Y721244D01*
X1928265Y722265D01*
X1927500Y722582D01*
X1926000D01*
X1925235Y722265D01*
X1925235Y722265D01*
X1924630Y721661D01*
X1923424Y721254D01*
X1922589Y721600D01*
X1920171D01*
X1919336Y721254D01*
X1918424D01*
X1918029Y721418D01*
X1917589Y721600D01*
X1915171D01*
X1914336Y721254D01*
X1913424D01*
X1913029Y721418D01*
X1912589Y721600D01*
X1910171D01*
X1909336Y721254D01*
X1908424D01*
X1908029Y721418D01*
X1907589Y721600D01*
X1905171D01*
X1904336Y721254D01*
X1903869Y721161D01*
X1902765Y722265D01*
X1902000Y722582D01*
X1900500D01*
X1899820Y723037D01*
Y724369D01*
X1899474Y725204D01*
Y726116D01*
X1899474Y726116D01*
X1899820Y726951D01*
Y729369D01*
X1899474Y730204D01*
Y731116D01*
X1899638Y731511D01*
X1899820Y731951D01*
Y734369D01*
X1899474Y735204D01*
Y736116D01*
X1899474Y736116D01*
X1899820Y736951D01*
Y739369D01*
X1899474Y740204D01*
Y741116D01*
X1899638Y741511D01*
X1899820Y741951D01*
Y744369D01*
X1899474Y745204D01*
Y746116D01*
X1899638Y746511D01*
X1899820Y746951D01*
Y749369D01*
X1899474Y750204D01*
Y751116D01*
X1899474Y751116D01*
X1899820Y751951D01*
Y754369D01*
X1899474Y755204D01*
Y756116D01*
X1899638Y756511D01*
X1899820Y756951D01*
Y759369D01*
X1899474Y760204D01*
Y761116D01*
X1899474Y761116D01*
X1899820Y761951D01*
Y763547D01*
X1900090Y764450D01*
X1900993Y764720D01*
X1902589D01*
X1903424Y765066D01*
X1904336D01*
X1904336Y765066D01*
X1905171Y764720D01*
X1907589D01*
X1908424Y765066D01*
X1909336D01*
X1909731Y764902D01*
X1910171Y764720D01*
X1912589D01*
X1913424Y765066D01*
X1914336D01*
X1914731Y764902D01*
X1915171Y764720D01*
X1917589D01*
X1918424Y765066D01*
X1919336D01*
X1919731Y764902D01*
X1920171Y764720D01*
X1922589D01*
X1923424Y765066D01*
X1924336D01*
X1924336Y765066D01*
X1925171Y764720D01*
X1927589D01*
X1928424Y765066D01*
X1929336D01*
X1929336Y765066D01*
X1930171Y764720D01*
X1932589D01*
X1933424Y765066D01*
X1934336D01*
X1934336Y765066D01*
X1935171Y764720D01*
X1937589D01*
X1938424Y765066D01*
X1939336D01*
X1939336Y765066D01*
X1940171Y764720D01*
D02*
G37*
G36*
X1980000Y763500D02*
X1980000Y702500D01*
X1976500Y699000D01*
X1924500D01*
X1923000Y697500D01*
Y687000D01*
X1924500Y685500D01*
X1930500D01*
X1932000Y684000D01*
Y669000D01*
X1930500Y667500D01*
X1902000D01*
X1899000Y670500D01*
Y720000D01*
X1900500Y721500D01*
X1902000D01*
X1903500Y720000D01*
Y708000D01*
X1905000Y706500D01*
X1923000D01*
X1924500Y708000D01*
Y720000D01*
X1926000Y721500D01*
X1927500D01*
X1928990Y720010D01*
Y709601D01*
X1929000Y709577D01*
Y708000D01*
X1930500Y706500D01*
X1959000Y706500D01*
X1962000Y709500D01*
X1962000Y738000D01*
X1959000Y741000D01*
X1944000D01*
X1942500Y742500D01*
Y744000D01*
X1944000Y745500D01*
X1969500D01*
X1971000Y747000D01*
Y751500D01*
X1966500Y756000D01*
X1945000Y756000D01*
X1943000Y758000D01*
X1943000Y764005D01*
X1944994Y766000D01*
X1977500Y766000D01*
X1980000Y763500D01*
D02*
G37*
G36*
X1877275Y723847D02*
X1877993Y723403D01*
Y701628D01*
X1878148Y700847D01*
X1878590Y700186D01*
X1880336Y698440D01*
Y680039D01*
X1877500D01*
Y681500D01*
X1872500D01*
Y674500D01*
X1877500D01*
Y675961D01*
X1880336D01*
Y601875D01*
X1880491Y601095D01*
X1880933Y600433D01*
X1890336Y591030D01*
Y581220D01*
X1888102Y578986D01*
X1888055Y579023D01*
X1886099Y579833D01*
X1884000Y580109D01*
X1882137Y579864D01*
X1881929Y579894D01*
X1881918Y579897D01*
X1881473Y580051D01*
X1880853Y580366D01*
X1880694Y580639D01*
X1880666Y580696D01*
X1880547Y580984D01*
X1870765Y590765D01*
X1870000Y591082D01*
X1850000D01*
X1849235Y590765D01*
X1849235Y590765D01*
X1844235Y585765D01*
X1843918Y585000D01*
Y560683D01*
X1842648Y560229D01*
X1840791Y562491D01*
X1838114Y564688D01*
X1835060Y566320D01*
X1831746Y567326D01*
X1828300Y567665D01*
X1824854Y567326D01*
X1821540Y566320D01*
X1818486Y564688D01*
X1815809Y562491D01*
X1813612Y559814D01*
X1811980Y556760D01*
X1810974Y553446D01*
X1810635Y550000D01*
X1810974Y546554D01*
X1811980Y543240D01*
X1813612Y540186D01*
X1815809Y537509D01*
X1818486Y535312D01*
X1821540Y533680D01*
X1824854Y532674D01*
X1828300Y532335D01*
X1831746Y532674D01*
X1835060Y533680D01*
X1838114Y535312D01*
X1840791Y537509D01*
X1842648Y539771D01*
X1843918Y539317D01*
Y520448D01*
X1829552Y506082D01*
X1725448D01*
X1696082Y535448D01*
Y654552D01*
X1705448Y663918D01*
X1751201D01*
X1751453Y662648D01*
X1749945Y662023D01*
X1748266Y660734D01*
X1746977Y659055D01*
X1746167Y657099D01*
X1745891Y655000D01*
X1746167Y652901D01*
X1746977Y650945D01*
X1748266Y649266D01*
X1749945Y647977D01*
X1751901Y647167D01*
X1754000Y646891D01*
X1756099Y647167D01*
X1758055Y647977D01*
X1758102Y648014D01*
X1760237Y645879D01*
X1760294Y645792D01*
Y644208D01*
X1760237Y644121D01*
X1758102Y641986D01*
X1758055Y642023D01*
X1756099Y642833D01*
X1754000Y643109D01*
X1751901Y642833D01*
X1749945Y642023D01*
X1748266Y640734D01*
X1746977Y639055D01*
X1746167Y637099D01*
X1745891Y635000D01*
X1746167Y632901D01*
X1746977Y630945D01*
X1748266Y629266D01*
X1749945Y627977D01*
X1751901Y627167D01*
X1754000Y626891D01*
X1756099Y627167D01*
X1758055Y627977D01*
X1759734Y629266D01*
X1761023Y630945D01*
X1761833Y632901D01*
X1762109Y635000D01*
X1761833Y637099D01*
X1761023Y639055D01*
X1760986Y639102D01*
X1763220Y641336D01*
X1809721D01*
X1810502Y641491D01*
X1811163Y641933D01*
X1817442Y648212D01*
X1817442Y648212D01*
X1817884Y648874D01*
X1818039Y649654D01*
X1818039Y649654D01*
Y689030D01*
X1825845Y696836D01*
X1842125D01*
X1842125Y696836D01*
X1853961D01*
Y694500D01*
X1852500D01*
Y689500D01*
X1859500D01*
Y694500D01*
X1858039D01*
Y696836D01*
X1860175D01*
X1860955Y696991D01*
X1861617Y697433D01*
X1874651Y710467D01*
X1875093Y711129D01*
X1875248Y711909D01*
Y722454D01*
X1876748Y723954D01*
X1877275Y723847D01*
D02*
G37*
G36*
X1887821Y720770D02*
X1896862D01*
X1897918Y720000D01*
Y670500D01*
X1897917Y670500D01*
X1898235Y669735D01*
X1898235Y669735D01*
X1901235Y666735D01*
X1902000Y666418D01*
X1930500D01*
X1931265Y666735D01*
X1931265Y666735D01*
X1932765Y668235D01*
X1933082Y669000D01*
Y673727D01*
X1933803Y674045D01*
X1934352Y674117D01*
X1936735Y671735D01*
X1937500Y671418D01*
X1964552D01*
X1966418Y669552D01*
Y665448D01*
X1964552Y663582D01*
X1937500D01*
X1936735Y663265D01*
X1936735Y663265D01*
X1934235Y660765D01*
X1933918Y660000D01*
Y650000D01*
X1933918Y650000D01*
X1934235Y649235D01*
X1936735Y646735D01*
X1937500Y646418D01*
X1979552D01*
X1983918Y642052D01*
Y515448D01*
X1974552Y506082D01*
X1890448D01*
X1881082Y515448D01*
Y563285D01*
X1882352Y564108D01*
X1884000Y563891D01*
X1886099Y564167D01*
X1888055Y564977D01*
X1889734Y566266D01*
X1891023Y567945D01*
X1891833Y569901D01*
X1892109Y572000D01*
X1891833Y574099D01*
X1891023Y576055D01*
X1890986Y576102D01*
X1893121Y578237D01*
X1894000Y578813D01*
X1894879Y578237D01*
X1897014Y576102D01*
X1896977Y576055D01*
X1896167Y574099D01*
X1895891Y572000D01*
X1896167Y569901D01*
X1896977Y567945D01*
X1898266Y566266D01*
X1899945Y564977D01*
X1901901Y564167D01*
X1904000Y563891D01*
X1906099Y564167D01*
X1908055Y564977D01*
X1909734Y566266D01*
X1911023Y567945D01*
X1911833Y569901D01*
X1912109Y572000D01*
X1911833Y574099D01*
X1911023Y576055D01*
X1909734Y577734D01*
X1908055Y579023D01*
X1906099Y579833D01*
X1904000Y580109D01*
X1901901Y579833D01*
X1899945Y579023D01*
X1899898Y578986D01*
X1897664Y581220D01*
Y593221D01*
X1897509Y594002D01*
X1897067Y594663D01*
X1897067Y594663D01*
X1887664Y604066D01*
Y675961D01*
X1890500D01*
Y674500D01*
X1895500D01*
Y681500D01*
X1890500D01*
Y680039D01*
X1887664D01*
Y700631D01*
X1887664Y700631D01*
X1887509Y701411D01*
X1887067Y702073D01*
X1885321Y703819D01*
Y720184D01*
X1885786Y720695D01*
X1886986Y721116D01*
X1887821Y720770D01*
D02*
G37*
%LPC*%
G36*
X1828300Y955665D02*
X1824854Y955326D01*
X1821540Y954320D01*
X1818486Y952688D01*
X1815809Y950491D01*
X1813612Y947814D01*
X1811980Y944760D01*
X1810974Y941446D01*
X1810635Y938000D01*
X1810974Y934554D01*
X1811980Y931240D01*
X1813612Y928186D01*
X1815809Y925509D01*
X1818486Y923312D01*
X1821540Y921680D01*
X1824854Y920674D01*
X1828300Y920335D01*
X1831746Y920674D01*
X1835060Y921680D01*
X1838114Y923312D01*
X1840791Y925509D01*
X1842988Y928186D01*
X1844620Y931240D01*
X1845626Y934554D01*
X1845965Y938000D01*
X1845626Y941446D01*
X1844620Y944760D01*
X1842988Y947814D01*
X1840791Y950491D01*
X1838114Y952688D01*
X1835060Y954320D01*
X1831746Y955326D01*
X1828300Y955665D01*
D02*
G37*
G36*
X1731000Y919365D02*
X1727554Y919026D01*
X1724240Y918020D01*
X1721186Y916388D01*
X1718509Y914191D01*
X1716312Y911514D01*
X1714680Y908460D01*
X1713674Y905146D01*
X1713335Y901700D01*
X1713674Y898254D01*
X1714680Y894940D01*
X1716312Y891886D01*
X1718509Y889209D01*
X1721186Y887012D01*
X1724240Y885380D01*
X1727554Y884374D01*
X1731000Y884035D01*
X1734446Y884374D01*
X1737760Y885380D01*
X1740814Y887012D01*
X1743491Y889209D01*
X1745688Y891886D01*
X1747320Y894940D01*
X1748326Y898254D01*
X1748665Y901700D01*
X1748326Y905146D01*
X1747320Y908460D01*
X1745688Y911514D01*
X1743491Y914191D01*
X1740814Y916388D01*
X1737760Y918020D01*
X1734446Y919026D01*
X1731000Y919365D01*
D02*
G37*
G36*
X2094000Y788565D02*
X2092042Y788307D01*
X2090218Y787551D01*
X2088651Y786349D01*
X2087449Y784782D01*
X2086693Y782958D01*
X2086435Y781000D01*
X2086693Y779042D01*
X2087449Y777218D01*
X2088651Y775651D01*
X2090218Y774449D01*
X2092042Y773693D01*
X2094000Y773435D01*
X2095958Y773693D01*
X2097782Y774449D01*
X2099349Y775651D01*
X2100551Y777218D01*
X2101307Y779042D01*
X2101565Y781000D01*
X2101307Y782958D01*
X2100551Y784782D01*
X2099349Y786349D01*
X2097782Y787551D01*
X2095958Y788307D01*
X2094000Y788565D01*
D02*
G37*
G36*
X1987000Y734078D02*
X1985439Y733768D01*
X1984116Y732884D01*
X1983232Y731561D01*
X1982922Y730000D01*
X1983232Y728439D01*
X1984116Y727116D01*
X1985439Y726232D01*
X1987000Y725922D01*
X1988561Y726232D01*
X1988859Y726431D01*
X1994980D01*
Y726000D01*
X2002380D01*
Y734000D01*
X1994980D01*
Y733569D01*
X1988859D01*
X1988561Y733768D01*
X1987000Y734078D01*
D02*
G37*
G36*
X2094000Y738565D02*
X2092042Y738307D01*
X2090218Y737551D01*
X2088651Y736349D01*
X2087449Y734782D01*
X2086693Y732958D01*
X2086435Y731000D01*
X2086693Y729042D01*
X2087449Y727218D01*
X2088651Y725651D01*
X2090218Y724449D01*
X2092042Y723693D01*
X2094000Y723435D01*
X2095958Y723693D01*
X2097782Y724449D01*
X2099349Y725651D01*
X2100551Y727218D01*
X2101307Y729042D01*
X2101565Y731000D01*
X2101307Y732958D01*
X2100551Y734782D01*
X2099349Y736349D01*
X2097782Y737551D01*
X2095958Y738307D01*
X2094000Y738565D01*
D02*
G37*
G36*
X1731000Y787965D02*
X1727554Y787626D01*
X1724240Y786620D01*
X1721186Y784988D01*
X1718509Y782791D01*
X1716312Y780114D01*
X1714680Y777060D01*
X1713674Y773746D01*
X1713335Y770300D01*
X1713674Y766854D01*
X1714680Y763540D01*
X1716312Y760486D01*
X1718509Y757809D01*
X1721186Y755612D01*
X1724240Y753980D01*
X1727554Y752974D01*
X1731000Y752635D01*
X1734446Y752974D01*
X1737760Y753980D01*
X1740814Y755612D01*
X1743491Y757809D01*
X1745688Y760486D01*
X1747320Y763540D01*
X1748326Y766854D01*
X1748665Y770300D01*
X1748326Y773746D01*
X1747320Y777060D01*
X1745688Y780114D01*
X1743491Y782791D01*
X1740814Y784988D01*
X1737760Y786620D01*
X1734446Y787626D01*
X1731000Y787965D01*
D02*
G37*
G36*
X1732000Y728365D02*
X1728554Y728026D01*
X1725240Y727020D01*
X1722186Y725388D01*
X1719509Y723191D01*
X1717312Y720514D01*
X1715680Y717460D01*
X1714674Y714146D01*
X1714335Y710700D01*
X1714674Y707254D01*
X1715680Y703940D01*
X1717312Y700886D01*
X1719509Y698209D01*
X1722186Y696012D01*
X1725240Y694380D01*
X1728554Y693374D01*
X1732000Y693035D01*
X1735446Y693374D01*
X1738760Y694380D01*
X1741814Y696012D01*
X1744491Y698209D01*
X1746688Y700886D01*
X1748320Y703940D01*
X1749326Y707254D01*
X1749665Y710700D01*
X1749326Y714146D01*
X1748320Y717460D01*
X1746688Y720514D01*
X1744491Y723191D01*
X1741814Y725388D01*
X1738760Y727020D01*
X1735446Y728026D01*
X1732000Y728365D01*
D02*
G37*
G36*
Y596965D02*
X1728554Y596626D01*
X1725240Y595620D01*
X1722186Y593988D01*
X1719509Y591791D01*
X1717312Y589114D01*
X1715680Y586060D01*
X1714674Y582746D01*
X1714335Y579300D01*
X1714674Y575854D01*
X1715680Y572540D01*
X1717312Y569486D01*
X1719509Y566809D01*
X1722186Y564612D01*
X1725240Y562980D01*
X1728554Y561974D01*
X1732000Y561635D01*
X1735446Y561974D01*
X1738760Y562980D01*
X1741814Y564612D01*
X1744491Y566809D01*
X1746688Y569486D01*
X1748320Y572540D01*
X1749326Y575854D01*
X1749665Y579300D01*
X1749326Y582746D01*
X1748320Y586060D01*
X1746688Y589114D01*
X1744491Y591791D01*
X1741814Y593988D01*
X1738760Y595620D01*
X1735446Y596626D01*
X1732000Y596965D01*
D02*
G37*
G36*
X1927260Y661410D02*
X1913160D01*
Y653510D01*
X1927260D01*
Y661410D01*
D02*
G37*
G36*
X1959700Y567665D02*
X1956254Y567326D01*
X1952940Y566320D01*
X1949886Y564688D01*
X1947209Y562491D01*
X1945012Y559814D01*
X1943380Y556760D01*
X1942374Y553446D01*
X1942035Y550000D01*
X1942374Y546554D01*
X1943380Y543240D01*
X1945012Y540186D01*
X1947209Y537509D01*
X1949886Y535312D01*
X1952940Y533680D01*
X1956254Y532674D01*
X1959700Y532335D01*
X1963146Y532674D01*
X1966460Y533680D01*
X1969514Y535312D01*
X1972191Y537509D01*
X1974388Y540186D01*
X1976020Y543240D01*
X1977026Y546554D01*
X1977365Y550000D01*
X1977026Y553446D01*
X1976020Y556760D01*
X1974388Y559814D01*
X1972191Y562491D01*
X1969514Y564688D01*
X1966460Y566320D01*
X1963146Y567326D01*
X1959700Y567665D01*
D02*
G37*
%LPD*%
D10*
X1856000Y743297D02*
Y749000D01*
X1877506Y749035D02*
X1885602D01*
X1886317Y748320D01*
X1893070D02*
X1893230Y748160D01*
X1886317Y748320D02*
X1893070D01*
X1867346Y738875D02*
X1877506Y749035D01*
X1866000Y742125D02*
X1876160Y752285D01*
X1754000Y635000D02*
X1762375Y643375D01*
X1753000Y846000D02*
X1761375Y837625D01*
X1812750Y691221D02*
X1823654Y702125D01*
X1817750Y789779D02*
X1825654Y781875D01*
X1842125Y698875D02*
X1842125Y698875D01*
X1840779Y702125D02*
X1840779Y702125D01*
X1840625Y738875D02*
X1840625Y738875D01*
X1839279Y742125D02*
X1839279Y742125D01*
X1843125Y781875D02*
X1843125Y781875D01*
X1841779Y785125D02*
X1841779Y785125D01*
X1854828Y698875D02*
X1856000Y697703D01*
Y692000D02*
Y697703D01*
X1854828Y702125D02*
X1856000Y703297D01*
X1857172Y702125D01*
X1858828D01*
X1857172Y698875D02*
X1860175D01*
X1856000Y697703D02*
X1857172Y698875D01*
X1869959Y713255D02*
Y724645D01*
X1854828Y738875D02*
X1856000Y737703D01*
Y732000D02*
Y737703D01*
X1854828Y742125D02*
X1856000Y743297D01*
Y737703D02*
X1857172Y738875D01*
X1867346D01*
X1857172Y742125D02*
X1866000D01*
X1856000Y743297D02*
X1857172Y742125D01*
X1854828Y781875D02*
X1856000Y780704D01*
X1857172Y781875D01*
X1856000Y775000D02*
Y780704D01*
X1857172Y781875D02*
X1859660D01*
X1854828Y785125D02*
X1856000Y786297D01*
X1857172Y785125D01*
X1861006D01*
X1885625Y676828D02*
X1886797Y678000D01*
X1875000D02*
X1881203D01*
X1882375Y676828D01*
X1881203Y678000D02*
X1882375Y679172D01*
X1885625D02*
X1886797Y678000D01*
X1880032Y701628D02*
X1882375Y699285D01*
X1883282Y702974D02*
X1885625Y700631D01*
X1880032Y723701D02*
X1883107Y726777D01*
X1885094D01*
X1886317Y728000D01*
X1873209Y711909D02*
Y723299D01*
X1883282Y722355D02*
X1884453Y723527D01*
X1886110D01*
X1886317Y723320D01*
X1882599Y737285D02*
X1885602D01*
X1886317Y738000D01*
X1885602Y734035D02*
X1886317Y733320D01*
X1883945Y734035D02*
X1885602D01*
Y752285D02*
X1886317Y753000D01*
X1876160Y752285D02*
X1885602D01*
X1882500Y759035D02*
X1885602D01*
X1886317Y758320D01*
X1883846Y762285D02*
X1885602D01*
X1886317Y763000D01*
X1895625Y580375D02*
X1904000Y572000D01*
X1893070Y728000D02*
X1893230Y728160D01*
X1893070Y723320D02*
X1893230Y723160D01*
X1893070Y738000D02*
X1893230Y738160D01*
X1893070Y733320D02*
X1893230Y733160D01*
X1893070Y753000D02*
X1893230Y753160D01*
X1893070Y758320D02*
X1893230Y758160D01*
X1893070Y763000D02*
X1893230Y763160D01*
X1921380Y797590D02*
X1921895Y798105D01*
X1945310Y666960D02*
X1945330Y666980D01*
X1941380Y775510D02*
X1943870Y778000D01*
X1936680Y778363D02*
X1943317Y785000D01*
X1959980Y666980D02*
X1960000Y667000D01*
X1999900Y697000D02*
X1999940Y697040D01*
X1999850Y712000D02*
X1999890Y712040D01*
X1754000Y655000D02*
X1762375Y646625D01*
X1753000Y826000D02*
X1761375Y834375D01*
X1794375D02*
X1802750Y826000D01*
X1795721Y837625D02*
X1806000Y827346D01*
X1812750Y651000D02*
Y691221D01*
X1816000Y649654D02*
Y689875D01*
X1825000Y698875D01*
X1821000Y791125D02*
X1827000Y785125D01*
X1856000Y703297D02*
Y709000D01*
X1858828Y702125D02*
X1869959Y713255D01*
X1856000Y786297D02*
Y792000D01*
X1882375Y679172D02*
Y699285D01*
X1885625Y679172D02*
Y700631D01*
X1873209Y723299D02*
X1883945Y734035D01*
X1895625Y580375D02*
Y593221D01*
X1906380Y771630D02*
Y789620D01*
X1901380Y771310D02*
Y782620D01*
X1906220Y771470D02*
X1906380Y771630D01*
X1895625Y907625D02*
X1904000Y916000D01*
X1921380Y771310D02*
Y797590D01*
X1941380Y771310D02*
Y775510D01*
X1936680Y771610D02*
Y778363D01*
X1936380Y771310D02*
X1936680Y771610D01*
X2003970Y668700D02*
X2004240Y668970D01*
X1806000Y758125D02*
Y827346D01*
X1802750Y756779D02*
Y826000D01*
X1885625Y603221D02*
Y676828D01*
X1882375Y601875D02*
Y676828D01*
X1880032Y701628D02*
Y723701D01*
X1883282Y702974D02*
Y722355D01*
X1895625Y883279D02*
Y907625D01*
X1817750Y789779D02*
Y863346D01*
X1821000Y791125D02*
Y862000D01*
X1761375Y834375D02*
X1794375D01*
X1761375Y837625D02*
X1795721D01*
X1842125Y698875D02*
X1854828D01*
X1840779Y702125D02*
X1854828D01*
X1825000Y698875D02*
X1842125D01*
X1823654Y702125D02*
X1840779D01*
X1839279Y742125D02*
X1854828D01*
X1840625Y738875D02*
X1854828D01*
X1822000Y742125D02*
X1839279D01*
X1820654Y738875D02*
X1840625D01*
X1825654Y781875D02*
X1843125D01*
X1843125Y781875D02*
X1854828D01*
X1827000Y785125D02*
X1841779D01*
X1841779Y785125D02*
X1854828D01*
X1884000Y572000D02*
X1892375Y580375D01*
X1885625Y603221D02*
X1895625Y593221D01*
X1882375Y601875D02*
X1892375Y591875D01*
X1886797Y678000D02*
X1893000D01*
X1886317Y728000D02*
X1893070D01*
X1886317Y723320D02*
X1893070D01*
X1886317Y738000D02*
X1893070D01*
X1886317Y733320D02*
X1893070D01*
X1886317Y753000D02*
X1893070D01*
X1886317Y758320D02*
X1893070D01*
X1886317Y763000D02*
X1893070D01*
X1952823Y785000D02*
X1953283Y784540D01*
X1953523D01*
X1891346Y879000D02*
X1895625Y883279D01*
X1890000Y882250D02*
X1892375Y884625D01*
X1860175Y698875D02*
X1873209Y711909D01*
X1808375Y646625D02*
X1812750Y651000D01*
X1809721Y643375D02*
X1816000Y649654D01*
X1806000Y758125D02*
X1822000Y742125D01*
X1802750Y756779D02*
X1820654Y738875D01*
X1821000Y862000D02*
X1838000Y879000D01*
X1892375Y580375D02*
Y591875D01*
X1892375Y884625D02*
Y907625D01*
X1884000Y916000D02*
X1892375Y907625D01*
X1817750Y863346D02*
X1836654Y882250D01*
X1762375Y646625D02*
X1808375D01*
X1762375Y643375D02*
X1809721D01*
X1881160Y743160D02*
X1893230D01*
X1836654Y882250D02*
X1890000D01*
X1838000Y879000D02*
X1891346D01*
X1859660Y781875D02*
X1882500Y759035D01*
X1861006Y785125D02*
X1883846Y762285D01*
X1869959Y724645D02*
X1882599Y737285D01*
D11*
X1834000Y749000D02*
X1846000D01*
X1833000Y692000D02*
X1846000D01*
X1834000Y732000D02*
X1846000D01*
X1832936Y774000D02*
X1833936Y775000D01*
X1846000D01*
X1876500Y806000D02*
X1887500Y795000D01*
X1899875Y801000D02*
X1907000D01*
X1904500Y826000D02*
X1909500Y821000D01*
X1926445Y839055D02*
X1928750Y836750D01*
X1926445Y839055D02*
Y846250D01*
X1917555Y839271D02*
Y846250D01*
X1915798Y837514D02*
X1917555Y839271D01*
X1984500Y761000D02*
X1989500Y756000D01*
X1984500Y761000D02*
Y764465D01*
X1833000Y709000D02*
X1846000D01*
X1832000Y792000D02*
X1846000D01*
X1875000Y652936D02*
Y668000D01*
X1893000Y651000D02*
Y668000D01*
X1901000Y795000D02*
X1906380Y789620D01*
X1928750Y831000D02*
Y836750D01*
X1934500Y831000D02*
X1939500Y826000D01*
X1936545Y812755D02*
X1949743D01*
X2009500Y770500D02*
X2011554Y768446D01*
X2008000Y771000D02*
X2008500Y770500D01*
X2009500D01*
X1854500Y806000D02*
X1876500D01*
X1943317Y785000D02*
X1952823D01*
X1892000Y808875D02*
X1899875Y801000D01*
X1887500Y795000D02*
X1901000D01*
X1939500Y826000D02*
X1951500D01*
Y814512D02*
Y826000D01*
X1892000D02*
X1904500D01*
X1909500Y821000D02*
X1915250D01*
X1892000Y826000D02*
X1892000Y826000D01*
X1893757Y837514D02*
X1915798D01*
X1892000Y835757D02*
X1893757Y837514D01*
X2011554Y768446D02*
X2021000D01*
X1989500Y756000D02*
X1998360D01*
X2007000D02*
X2021000D01*
X2008000Y789000D02*
X2021000D01*
X1892000Y808875D02*
Y826000D01*
X1892000Y826000D02*
Y835757D01*
X1949743Y812755D02*
X1951500Y814512D01*
X1928750Y831000D02*
X1934500D01*
X1970965Y778000D02*
X1984500Y764465D01*
X1921895Y798105D02*
X1936545Y812755D01*
X1907000Y801000D02*
X1916380Y791620D01*
X1943870Y778000D02*
X1970965D01*
D14*
X1921380Y743160D02*
X1926380Y748160D01*
X1949530D01*
X1832000Y774000D02*
X1832936D01*
X1874000Y651000D02*
Y651936D01*
X1875000Y652936D01*
X1921380Y743160D02*
X1926380Y738160D01*
X1915250Y821000D02*
X1915250Y821000D01*
X1916380Y771310D02*
Y791620D01*
X1926380Y738160D02*
X1949530D01*
D15*
X1865765Y731765D02*
X1869765D01*
X1865000Y731000D02*
X1865765Y731765D01*
X1869765D02*
X1881160Y743160D01*
D18*
X1945310Y657460D02*
D03*
Y666960D02*
D03*
Y676460D02*
D03*
X1920210D02*
D03*
Y657460D02*
D03*
D19*
X2055500Y791000D02*
D03*
Y746000D02*
D03*
Y721000D02*
D03*
Y766000D02*
D03*
D20*
X2078000Y683500D02*
D03*
Y828500D02*
D03*
D21*
X1901380Y771310D02*
D03*
Y715010D02*
D03*
X1906380Y771310D02*
D03*
X1911380D02*
D03*
X1916380D02*
D03*
X1921380D02*
D03*
X1926380D02*
D03*
X1931380D02*
D03*
X1936380D02*
D03*
X1941380D02*
D03*
Y715010D02*
D03*
X1936380D02*
D03*
X1931380D02*
D03*
X1926380D02*
D03*
X1921380D02*
D03*
X1916380D02*
D03*
X1911380D02*
D03*
X1906380D02*
D03*
D22*
X1949530Y763160D02*
D03*
Y758160D02*
D03*
Y753160D02*
D03*
Y748160D02*
D03*
Y743160D02*
D03*
Y738160D02*
D03*
Y733160D02*
D03*
Y728160D02*
D03*
Y723160D02*
D03*
X1893230D02*
D03*
Y728160D02*
D03*
Y733160D02*
D03*
Y738160D02*
D03*
Y743160D02*
D03*
Y748160D02*
D03*
Y753160D02*
D03*
Y758160D02*
D03*
Y763160D02*
D03*
D23*
X1893000Y678000D02*
D03*
Y668000D02*
D03*
X1875000Y678000D02*
D03*
Y668000D02*
D03*
D24*
X1928750Y821000D02*
D03*
X1915250D02*
D03*
Y831000D02*
D03*
X1928750D02*
D03*
D25*
X1998680Y730000D02*
D03*
X2007320D02*
D03*
X1998360Y756000D02*
D03*
X2007000D02*
D03*
D26*
X1999890Y712040D02*
D03*
X2008590D02*
D03*
D27*
X1999940Y697040D02*
D03*
X2008540D02*
D03*
X1927060Y691960D02*
D03*
X1918460D02*
D03*
D28*
X1854500Y806000D02*
D03*
X1845610D02*
D03*
X1926445Y846250D02*
D03*
X1917555D02*
D03*
D29*
X1892000Y826000D02*
D03*
X1874500D02*
D03*
X1951500D02*
D03*
X1969000D02*
D03*
D30*
X2003970Y668700D02*
D03*
Y660000D02*
D03*
X1988000Y668350D02*
D03*
Y659650D02*
D03*
D31*
X1998000Y771000D02*
D03*
X2008000D02*
D03*
X1998000Y789000D02*
D03*
X2008000D02*
D03*
X1856000Y792000D02*
D03*
X1846000D02*
D03*
X1856000Y775000D02*
D03*
X1846000D02*
D03*
X1856000Y749000D02*
D03*
X1846000D02*
D03*
X1856000Y732000D02*
D03*
X1846000D02*
D03*
X1856000Y709000D02*
D03*
X1846000D02*
D03*
X1856000Y692000D02*
D03*
X1846000D02*
D03*
D54*
X1921380Y743160D02*
D03*
D55*
X1949530Y753160D02*
X1949580Y753110D01*
X1955979D01*
X1959090Y750000D01*
X1963000D01*
D56*
X1834055Y806000D02*
X1845610D01*
X1898000Y786000D02*
X1901380Y782620D01*
X1988000Y668350D02*
Y681000D01*
X2004240Y668970D02*
Y681040D01*
X1889000Y786000D02*
X1898000D01*
X1987000Y697000D02*
X1999900D01*
X1945330Y666980D02*
X1959980D01*
X1927060Y691960D02*
X1938760D01*
X1987000Y712000D02*
X1999850D01*
X2007320Y730000D02*
X2021000D01*
X1987000D02*
X1998680D01*
X2034000Y791000D02*
X2055500D01*
D57*
X1925285Y778026D02*
X1925775Y777536D01*
X1964630Y808350D02*
X1966490Y806490D01*
X1962000Y802000D02*
X1968650Y795350D01*
X1966490Y806490D02*
Y806490D01*
X1975000Y789175D02*
X1981000Y783175D01*
X1987750Y776825D02*
X1987750Y776825D01*
X1978370Y776825D02*
X1987750D01*
X1990380Y783175D02*
X1990380Y783175D01*
X1981000Y783175D02*
X1990380D01*
X1995205Y776825D02*
X1997437Y774593D01*
X1995205Y783175D02*
X1997437Y785407D01*
Y788595D02*
X1997842Y789000D01*
X1997437Y785407D02*
Y788595D01*
X1997842Y789000D02*
X1998000D01*
X1998190D01*
X2001306Y785884D01*
Y785694D02*
X2004000Y783000D01*
X2001306Y785694D02*
Y785884D01*
X2029435Y758777D02*
Y768362D01*
X2035785Y761407D02*
X2038017Y759175D01*
X2043405Y763405D02*
X2046000Y766000D01*
X2038017Y759175D02*
X2041173D01*
X2043405Y761407D01*
Y763405D01*
X1925285Y778026D02*
Y795265D01*
X1925775Y771915D02*
Y777536D01*
Y771915D02*
X1926380Y771310D01*
X1968650Y786545D02*
Y795350D01*
X1975000Y789175D02*
Y797980D01*
X1997842Y771000D02*
X1998000D01*
X1998190D01*
X1997437Y771405D02*
Y774593D01*
Y771405D02*
X1997842Y771000D01*
X1998190D02*
X2003840Y776650D01*
X2021147D02*
X2029435Y768362D01*
X2035785Y761407D02*
Y770992D01*
X2043405Y748595D02*
Y750593D01*
Y748595D02*
X2046000Y746000D01*
X2041173Y752825D02*
X2043405Y750593D01*
X1931380Y774905D02*
Y775141D01*
X1931635Y775396D01*
X1925285Y795265D02*
X1938370Y808350D01*
X2029435Y758777D02*
X2035387Y752825D01*
X2041173D01*
X2004000Y783000D02*
X2023777D01*
X1968650Y786545D02*
X1978370Y776825D01*
X1987750Y776825D02*
X1995205D01*
X2003840Y776650D02*
X2021147D01*
X1990380Y783175D02*
X1995205D01*
X1966490Y806490D02*
X1975000Y797980D01*
X2046000Y746000D02*
X2055500D01*
X2046000Y766000D02*
X2055500D01*
X1931635Y775396D02*
Y792635D01*
X2023777Y783000D02*
X2035785Y770992D01*
X1931635Y792635D02*
X1941000Y802000D01*
X1938370Y808350D02*
X1964630D01*
X1941000Y802000D02*
X1962000D01*
D58*
X1929000Y572000D02*
D03*
X1904000D02*
D03*
X1884000D02*
D03*
X1859000Y916000D02*
D03*
X1884000D02*
D03*
X1904000D02*
D03*
X1753000Y801000D02*
D03*
Y826000D02*
D03*
Y846000D02*
D03*
X1754000Y610000D02*
D03*
Y635000D02*
D03*
Y655000D02*
D03*
D59*
X1859000Y572000D02*
D03*
X1929000Y916000D02*
D03*
D60*
X1959700Y550000D02*
D03*
X1828300D02*
D03*
Y938000D02*
D03*
X1959700D02*
D03*
X1731000Y770300D02*
D03*
Y901700D02*
D03*
X1732000Y579300D02*
D03*
Y710700D02*
D03*
D61*
X2094000Y731000D02*
D03*
Y781000D02*
D03*
D62*
X1753000Y871000D02*
D03*
X1754000Y680000D02*
D03*
D63*
X1627856Y1039642D02*
D03*
X2234424D02*
D03*
Y433073D02*
D03*
X1627856D02*
D03*
D64*
X1834000Y749000D02*
D03*
X1859500Y821000D02*
D03*
X1905000Y679000D02*
D03*
X1921380Y743160D02*
D03*
X1988000Y681000D02*
D03*
X1987000Y697000D02*
D03*
X1984000Y821000D02*
D03*
X2004240Y681040D02*
D03*
X2021000Y756000D02*
D03*
X2083700Y656000D02*
D03*
X1865000Y731000D02*
D03*
X1859500Y831000D02*
D03*
X1905000Y692000D02*
D03*
X1938760Y691960D02*
D03*
X1960000Y667000D02*
D03*
X1963000Y750000D02*
D03*
X1987000Y712000D02*
D03*
Y730000D02*
D03*
X1984000Y831000D02*
D03*
X2021000Y768446D02*
D03*
X2021000Y789000D02*
D03*
Y730000D02*
D03*
X2083700Y853900D02*
D03*
X1834055Y806000D02*
D03*
X1953523Y784540D02*
D03*
X1889000Y786000D02*
D03*
X1971000Y760000D02*
D03*
X2057100Y657000D02*
D03*
X2097000Y656000D02*
D03*
X2070400D02*
D03*
X1833000Y709000D02*
D03*
X1874000Y651000D02*
D03*
X1833000Y692000D02*
D03*
X1832000Y792000D02*
D03*
Y774000D02*
D03*
X1834000Y732000D02*
D03*
X1893000Y651000D02*
D03*
X1911000Y753000D02*
D03*
X1930000D02*
D03*
X1911000Y734000D02*
D03*
X1931000Y733000D02*
D03*
X2034000Y791000D02*
D03*
X2057100Y853900D02*
D03*
X2097000D02*
D03*
X2070400D02*
D03*
M02*
