G04*
G04 #@! TF.GenerationSoftware,Altium Limited,Altium Designer,20.2.3 (150)*
G04*
G04 Layer_Color=8421504*
%FSLAX44Y44*%
%MOMM*%
G71*
G04*
G04 #@! TF.SameCoordinates,CE7551EE-2CAC-49A0-A575-A5F11EB50F32*
G04*
G04*
G04 #@! TF.FilePolarity,Positive*
G04*
G01*
G75*
%ADD18R,1.2100X0.5900*%
G04:AMPARAMS|DCode=19|XSize=0.9mm|YSize=2.8mm|CornerRadius=0.018mm|HoleSize=0mm|Usage=FLASHONLY|Rotation=90.000|XOffset=0mm|YOffset=0mm|HoleType=Round|Shape=RoundedRectangle|*
%AMROUNDEDRECTD19*
21,1,0.9000,2.7640,0,0,90.0*
21,1,0.8640,2.8000,0,0,90.0*
1,1,0.0360,1.3820,0.4320*
1,1,0.0360,1.3820,-0.4320*
1,1,0.0360,-1.3820,-0.4320*
1,1,0.0360,-1.3820,0.4320*
%
%ADD19ROUNDEDRECTD19*%
%ADD20R,5.0000X2.5000*%
G04:AMPARAMS|DCode=21|XSize=0.26mm|YSize=1.1mm|CornerRadius=0.0091mm|HoleSize=0mm|Usage=FLASHONLY|Rotation=0.000|XOffset=0mm|YOffset=0mm|HoleType=Round|Shape=RoundedRectangle|*
%AMROUNDEDRECTD21*
21,1,0.2600,1.0818,0,0,0.0*
21,1,0.2418,1.1000,0,0,0.0*
1,1,0.0182,0.1209,-0.5409*
1,1,0.0182,-0.1209,-0.5409*
1,1,0.0182,-0.1209,0.5409*
1,1,0.0182,0.1209,0.5409*
%
%ADD21ROUNDEDRECTD21*%
G04:AMPARAMS|DCode=22|XSize=0.26mm|YSize=1.1mm|CornerRadius=0.0091mm|HoleSize=0mm|Usage=FLASHONLY|Rotation=270.000|XOffset=0mm|YOffset=0mm|HoleType=Round|Shape=RoundedRectangle|*
%AMROUNDEDRECTD22*
21,1,0.2600,1.0818,0,0,270.0*
21,1,0.2418,1.1000,0,0,270.0*
1,1,0.0182,-0.5409,-0.1209*
1,1,0.0182,-0.5409,0.1209*
1,1,0.0182,0.5409,0.1209*
1,1,0.0182,0.5409,-0.1209*
%
%ADD22ROUNDEDRECTD22*%
%ADD23R,0.3000X0.5000*%
%ADD24R,0.7500X0.7000*%
%ADD25R,0.5400X0.6000*%
%ADD26R,0.5600X0.6300*%
%ADD27R,0.5400X0.6000*%
%ADD28R,0.6350X0.6350*%
%ADD29R,1.1600X1.4700*%
%ADD30R,0.6300X0.5600*%
%ADD31R,0.5000X0.3000*%
G36*
X1919580Y728260D02*
X1906480D01*
Y741360D01*
X1919580D01*
Y728260D01*
D02*
G37*
G36*
Y744960D02*
X1906480D01*
Y758060D01*
X1919580D01*
Y744960D01*
D02*
G37*
G36*
X1936280Y728260D02*
X1923180D01*
Y741360D01*
X1936280D01*
Y728260D01*
D02*
G37*
G36*
Y744960D02*
X1923180D01*
Y758060D01*
X1936280D01*
Y744960D01*
D02*
G37*
D18*
X1945310Y657460D02*
D03*
Y666960D02*
D03*
Y676460D02*
D03*
X1920210D02*
D03*
Y657460D02*
D03*
D19*
X2055500Y791000D02*
D03*
Y746000D02*
D03*
Y721000D02*
D03*
Y766000D02*
D03*
D20*
X2078000Y683500D02*
D03*
Y828500D02*
D03*
D21*
X1901380Y771310D02*
D03*
Y715010D02*
D03*
X1906380Y771310D02*
D03*
X1911380D02*
D03*
X1916380D02*
D03*
X1921380D02*
D03*
X1926380D02*
D03*
X1931380D02*
D03*
X1936380D02*
D03*
X1941380D02*
D03*
Y715010D02*
D03*
X1936380D02*
D03*
X1931380D02*
D03*
X1926380D02*
D03*
X1921380D02*
D03*
X1916380D02*
D03*
X1911380D02*
D03*
X1906380D02*
D03*
D22*
X1949530Y763160D02*
D03*
Y758160D02*
D03*
Y753160D02*
D03*
Y748160D02*
D03*
Y743160D02*
D03*
Y738160D02*
D03*
Y733160D02*
D03*
Y728160D02*
D03*
Y723160D02*
D03*
X1893230D02*
D03*
Y728160D02*
D03*
Y733160D02*
D03*
Y738160D02*
D03*
Y743160D02*
D03*
Y748160D02*
D03*
Y753160D02*
D03*
Y758160D02*
D03*
Y763160D02*
D03*
D23*
X1893000Y678000D02*
D03*
Y668000D02*
D03*
X1875000Y678000D02*
D03*
Y668000D02*
D03*
D24*
X1928750Y821000D02*
D03*
X1915250D02*
D03*
Y831000D02*
D03*
X1928750D02*
D03*
D25*
X1998680Y730000D02*
D03*
X2007320D02*
D03*
X1998360Y756000D02*
D03*
X2007000D02*
D03*
D26*
X1999890Y712040D02*
D03*
X2008590D02*
D03*
D27*
X1999940Y697040D02*
D03*
X2008540D02*
D03*
X1927060Y691960D02*
D03*
X1918460D02*
D03*
D28*
X1854500Y806000D02*
D03*
X1845610D02*
D03*
X1926445Y846250D02*
D03*
X1917555D02*
D03*
D29*
X1892000Y826000D02*
D03*
X1874500D02*
D03*
X1951500D02*
D03*
X1969000D02*
D03*
D30*
X2003970Y668700D02*
D03*
Y660000D02*
D03*
X1988000Y668350D02*
D03*
Y659650D02*
D03*
D31*
X1998000Y771000D02*
D03*
X2008000D02*
D03*
X1998000Y789000D02*
D03*
X2008000D02*
D03*
X1856000Y792000D02*
D03*
X1846000D02*
D03*
X1856000Y775000D02*
D03*
X1846000D02*
D03*
X1856000Y749000D02*
D03*
X1846000D02*
D03*
X1856000Y732000D02*
D03*
X1846000D02*
D03*
X1856000Y709000D02*
D03*
X1846000D02*
D03*
X1856000Y692000D02*
D03*
X1846000D02*
D03*
M02*
