G04*
G04 #@! TF.GenerationSoftware,Altium Limited,Altium Designer,20.2.3 (150)*
G04*
G04 Layer_Color=32768*
%FSLAX44Y44*%
%MOMM*%
G71*
G04*
G04 #@! TF.SameCoordinates,CE7551EE-2CAC-49A0-A575-A5F11EB50F32*
G04*
G04*
G04 #@! TF.FilePolarity,Positive*
G04*
G01*
G75*
%ADD15C,0.4000*%
%ADD66C,0.0127*%
D15*
X1535664Y1428959D02*
X2490752D01*
X1535664Y1468959D02*
X2490752D01*
X1535664Y1148959D02*
Y1468959D01*
Y1148959D02*
X1673636D01*
X1535664Y1188959D02*
X1673636D01*
X1535664Y1228959D02*
X1673636D01*
X1535664Y1268959D02*
X1673636D01*
X1535664Y1308959D02*
X1673636D01*
X1535664Y1348959D02*
X1673636D01*
X1535664Y1388959D02*
X1673636D01*
Y1148959D02*
Y1468959D01*
Y1148959D02*
X1984884D01*
X1673636Y1188959D02*
X1984884D01*
X1673636Y1228959D02*
X1984884D01*
X1673636Y1268959D02*
X1984884D01*
X1673636Y1308959D02*
X1984884D01*
X1673636Y1348959D02*
X1984884D01*
X1673636Y1388959D02*
X1984884D01*
Y1148959D02*
Y1468959D01*
Y1148959D02*
X2272807D01*
X1984884Y1188959D02*
X2272807D01*
X1984884Y1228959D02*
X2272807D01*
X1984884Y1268959D02*
X2272807D01*
X1984884Y1308959D02*
X2272807D01*
X1984884Y1348959D02*
X2272807D01*
X1984884Y1388959D02*
X2272807D01*
Y1148959D02*
Y1468959D01*
Y1148959D02*
X2490752D01*
X2272807Y1188959D02*
X2490752D01*
X2272807Y1228959D02*
X2490752D01*
X2272807Y1268959D02*
X2490752D01*
X2272807Y1308959D02*
X2490752D01*
X2272807Y1348959D02*
X2490752D01*
X2272807Y1388959D02*
X2490752D01*
Y1148959D02*
Y1468959D01*
X1559664Y1458952D02*
Y1438959D01*
X1572993D01*
X1582990Y1452288D02*
X1589655D01*
X1592987Y1448956D01*
Y1438959D01*
X1582990D01*
X1579658Y1442291D01*
X1582990Y1445623D01*
X1592987D01*
X1599652Y1452288D02*
Y1442291D01*
X1602984Y1438959D01*
X1612981D01*
Y1435627D01*
X1609648Y1432294D01*
X1606316D01*
X1612981Y1438959D02*
Y1452288D01*
X1629642Y1438959D02*
X1622977D01*
X1619645Y1442291D01*
Y1448956D01*
X1622977Y1452288D01*
X1629642D01*
X1632974Y1448956D01*
Y1445623D01*
X1619645D01*
X1639639Y1452288D02*
Y1438959D01*
Y1445623D01*
X1642971Y1448956D01*
X1646303Y1452288D01*
X1649635D01*
X1572993Y1238959D02*
X1559664D01*
X1572993Y1252288D01*
Y1255620D01*
X1569661Y1258952D01*
X1562997D01*
X1559664Y1255620D01*
Y1318959D02*
X1566329D01*
X1562997D01*
Y1338952D01*
X1559664Y1335620D01*
X1697635Y1438959D02*
Y1458952D01*
X1710965Y1438959D01*
Y1458952D01*
X1720961Y1452288D02*
X1727626D01*
X1730958Y1448956D01*
Y1438959D01*
X1720961D01*
X1717629Y1442291D01*
X1720961Y1445623D01*
X1730958D01*
X1737623Y1438959D02*
Y1452288D01*
X1740955D01*
X1744287Y1448956D01*
Y1438959D01*
Y1448956D01*
X1747619Y1452288D01*
X1750952Y1448956D01*
Y1438959D01*
X1767613D02*
X1760948D01*
X1757616Y1442291D01*
Y1448956D01*
X1760948Y1452288D01*
X1767613D01*
X1770945Y1448956D01*
Y1445623D01*
X1757616D01*
X1697635Y1178952D02*
Y1158959D01*
X1707632D01*
X1710965Y1162291D01*
Y1165623D01*
X1707632Y1168956D01*
X1697635D01*
X1707632D01*
X1710965Y1172288D01*
Y1175620D01*
X1707632Y1178952D01*
X1697635D01*
X1720961Y1158959D02*
X1727626D01*
X1730958Y1162291D01*
Y1168956D01*
X1727626Y1172288D01*
X1720961D01*
X1717629Y1168956D01*
Y1162291D01*
X1720961Y1158959D01*
X1740955Y1175620D02*
Y1172288D01*
X1737623D01*
X1744287D01*
X1740955D01*
Y1162291D01*
X1744287Y1158959D01*
X1757616Y1175620D02*
Y1172288D01*
X1754284D01*
X1760948D01*
X1757616D01*
Y1162291D01*
X1760948Y1158959D01*
X1774277D02*
X1780942D01*
X1784274Y1162291D01*
Y1168956D01*
X1780942Y1172288D01*
X1774277D01*
X1770945Y1168956D01*
Y1162291D01*
X1774277Y1158959D01*
X1790939D02*
Y1172288D01*
X1794271D01*
X1797603Y1168956D01*
Y1158959D01*
Y1168956D01*
X1800936Y1172288D01*
X1804268Y1168956D01*
Y1158959D01*
X1840923Y1178952D02*
X1834258D01*
X1830926Y1175620D01*
Y1162291D01*
X1834258Y1158959D01*
X1840923D01*
X1844255Y1162291D01*
Y1175620D01*
X1840923Y1178952D01*
X1850919Y1172288D02*
X1857584Y1158959D01*
X1864248Y1172288D01*
X1880910Y1158959D02*
X1874245D01*
X1870913Y1162291D01*
Y1168956D01*
X1874245Y1172288D01*
X1880910D01*
X1884242Y1168956D01*
Y1165623D01*
X1870913D01*
X1890907Y1172288D02*
Y1158959D01*
Y1165623D01*
X1894239Y1168956D01*
X1897571Y1172288D01*
X1900903D01*
X1910900Y1158959D02*
X1917565D01*
X1914232D01*
Y1178952D01*
X1910900D01*
X1930894Y1172288D02*
X1937558D01*
X1940890Y1168956D01*
Y1158959D01*
X1930894D01*
X1927561Y1162291D01*
X1930894Y1165623D01*
X1940890D01*
X1947555Y1172288D02*
Y1162291D01*
X1950887Y1158959D01*
X1960884D01*
Y1155627D01*
X1957552Y1152294D01*
X1954219D01*
X1960884Y1158959D02*
Y1172288D01*
X1697635Y1218952D02*
Y1198959D01*
X1707632D01*
X1710965Y1202291D01*
Y1205623D01*
X1707632Y1208956D01*
X1697635D01*
X1707632D01*
X1710965Y1212288D01*
Y1215620D01*
X1707632Y1218952D01*
X1697635D01*
X1720961Y1198959D02*
X1727626D01*
X1730958Y1202291D01*
Y1208956D01*
X1727626Y1212288D01*
X1720961D01*
X1717629Y1208956D01*
Y1202291D01*
X1720961Y1198959D01*
X1740955Y1215620D02*
Y1212288D01*
X1737623D01*
X1744287D01*
X1740955D01*
Y1202291D01*
X1744287Y1198959D01*
X1757616Y1215620D02*
Y1212288D01*
X1754284D01*
X1760948D01*
X1757616D01*
Y1202291D01*
X1760948Y1198959D01*
X1774277D02*
X1780942D01*
X1784274Y1202291D01*
Y1208956D01*
X1780942Y1212288D01*
X1774277D01*
X1770945Y1208956D01*
Y1202291D01*
X1774277Y1198959D01*
X1790939D02*
Y1212288D01*
X1794271D01*
X1797603Y1208956D01*
Y1198959D01*
Y1208956D01*
X1800936Y1212288D01*
X1804268Y1208956D01*
Y1198959D01*
X1844255Y1215620D02*
X1840923Y1218952D01*
X1834258D01*
X1830926Y1215620D01*
Y1212288D01*
X1834258Y1208956D01*
X1840923D01*
X1844255Y1205623D01*
Y1202291D01*
X1840923Y1198959D01*
X1834258D01*
X1830926Y1202291D01*
X1854252Y1198959D02*
X1860916D01*
X1864248Y1202291D01*
Y1208956D01*
X1860916Y1212288D01*
X1854252D01*
X1850919Y1208956D01*
Y1202291D01*
X1854252Y1198959D01*
X1870913D02*
X1877577D01*
X1874245D01*
Y1218952D01*
X1870913D01*
X1900903D02*
Y1198959D01*
X1890907D01*
X1887574Y1202291D01*
Y1208956D01*
X1890907Y1212288D01*
X1900903D01*
X1917565Y1198959D02*
X1910900D01*
X1907568Y1202291D01*
Y1208956D01*
X1910900Y1212288D01*
X1917565D01*
X1920897Y1208956D01*
Y1205623D01*
X1907568D01*
X1927561Y1212288D02*
Y1198959D01*
Y1205623D01*
X1930894Y1208956D01*
X1934226Y1212288D01*
X1937558D01*
X1697635Y1258952D02*
Y1238959D01*
X1707632D01*
X1710965Y1242291D01*
Y1245623D01*
X1707632Y1248956D01*
X1697635D01*
X1707632D01*
X1710965Y1252288D01*
Y1255620D01*
X1707632Y1258952D01*
X1697635D01*
X1720961Y1238959D02*
X1727626D01*
X1730958Y1242291D01*
Y1248956D01*
X1727626Y1252288D01*
X1720961D01*
X1717629Y1248956D01*
Y1242291D01*
X1720961Y1238959D01*
X1740955Y1255620D02*
Y1252288D01*
X1737623D01*
X1744287D01*
X1740955D01*
Y1242291D01*
X1744287Y1238959D01*
X1757616Y1255620D02*
Y1252288D01*
X1754284D01*
X1760948D01*
X1757616D01*
Y1242291D01*
X1760948Y1238959D01*
X1774277D02*
X1780942D01*
X1784274Y1242291D01*
Y1248956D01*
X1780942Y1252288D01*
X1774277D01*
X1770945Y1248956D01*
Y1242291D01*
X1774277Y1238959D01*
X1790939D02*
Y1252288D01*
X1794271D01*
X1797603Y1248956D01*
Y1238959D01*
Y1248956D01*
X1800936Y1252288D01*
X1804268Y1248956D01*
Y1238959D01*
X1830926Y1258952D02*
Y1238959D01*
X1844255D01*
X1854252Y1252288D02*
X1860916D01*
X1864248Y1248956D01*
Y1238959D01*
X1854252D01*
X1850919Y1242291D01*
X1854252Y1245623D01*
X1864248D01*
X1870913Y1252288D02*
Y1242291D01*
X1874245Y1238959D01*
X1884242D01*
Y1235627D01*
X1880910Y1232294D01*
X1877577D01*
X1884242Y1238959D02*
Y1252288D01*
X1900903Y1238959D02*
X1894239D01*
X1890907Y1242291D01*
Y1248956D01*
X1894239Y1252288D01*
X1900903D01*
X1904236Y1248956D01*
Y1245623D01*
X1890907D01*
X1910900Y1252288D02*
Y1238959D01*
Y1245623D01*
X1914232Y1248956D01*
X1917565Y1252288D01*
X1920897D01*
X1697635Y1298952D02*
Y1278959D01*
X1707632D01*
X1710965Y1282291D01*
Y1295620D01*
X1707632Y1298952D01*
X1697635D01*
X1717629Y1278959D02*
X1724294D01*
X1720961D01*
Y1292288D01*
X1717629D01*
X1744287Y1278959D02*
X1737623D01*
X1734290Y1282291D01*
Y1288956D01*
X1737623Y1292288D01*
X1744287D01*
X1747619Y1288956D01*
Y1285623D01*
X1734290D01*
X1754284Y1278959D02*
X1760948D01*
X1757616D01*
Y1298952D01*
X1754284D01*
X1780942Y1278959D02*
X1774277D01*
X1770945Y1282291D01*
Y1288956D01*
X1774277Y1292288D01*
X1780942D01*
X1784274Y1288956D01*
Y1285623D01*
X1770945D01*
X1804268Y1292288D02*
X1794271D01*
X1790939Y1288956D01*
Y1282291D01*
X1794271Y1278959D01*
X1804268D01*
X1814265Y1295620D02*
Y1292288D01*
X1810932D01*
X1817597D01*
X1814265D01*
Y1282291D01*
X1817597Y1278959D01*
X1827594Y1292288D02*
Y1278959D01*
Y1285623D01*
X1830926Y1288956D01*
X1834258Y1292288D01*
X1837590D01*
X1847587Y1278959D02*
X1854252D01*
X1850919D01*
Y1292288D01*
X1847587D01*
X1877577D02*
X1867581D01*
X1864248Y1288956D01*
Y1282291D01*
X1867581Y1278959D01*
X1877577D01*
X1904236D02*
X1910900D01*
X1907568D01*
Y1298952D01*
X1904236Y1295620D01*
X1697635Y1338952D02*
X1710965D01*
X1704300D01*
Y1318959D01*
X1720961D02*
X1727626D01*
X1730958Y1322291D01*
Y1328956D01*
X1727626Y1332288D01*
X1720961D01*
X1717629Y1328956D01*
Y1322291D01*
X1720961Y1318959D01*
X1737623Y1312294D02*
Y1332288D01*
X1747619D01*
X1750952Y1328956D01*
Y1322291D01*
X1747619Y1318959D01*
X1737623D01*
X1777610Y1338952D02*
Y1318959D01*
X1790939D01*
X1800936Y1332288D02*
X1807600D01*
X1810932Y1328956D01*
Y1318959D01*
X1800936D01*
X1797603Y1322291D01*
X1800936Y1325623D01*
X1810932D01*
X1817597Y1332288D02*
Y1322291D01*
X1820929Y1318959D01*
X1830926D01*
Y1315627D01*
X1827594Y1312294D01*
X1824261D01*
X1830926Y1318959D02*
Y1332288D01*
X1847587Y1318959D02*
X1840923D01*
X1837590Y1322291D01*
Y1328956D01*
X1840923Y1332288D01*
X1847587D01*
X1850919Y1328956D01*
Y1325623D01*
X1837590D01*
X1857584Y1332288D02*
Y1318959D01*
Y1325623D01*
X1860916Y1328956D01*
X1864248Y1332288D01*
X1867581D01*
X1697635Y1378952D02*
X1710965D01*
X1704300D01*
Y1358959D01*
X1720961D02*
X1727626D01*
X1730958Y1362291D01*
Y1368956D01*
X1727626Y1372288D01*
X1720961D01*
X1717629Y1368956D01*
Y1362291D01*
X1720961Y1358959D01*
X1737623Y1352294D02*
Y1372288D01*
X1747619D01*
X1750952Y1368956D01*
Y1362291D01*
X1747619Y1358959D01*
X1737623D01*
X1790939Y1375620D02*
X1787607Y1378952D01*
X1780942D01*
X1777610Y1375620D01*
Y1372288D01*
X1780942Y1368956D01*
X1787607D01*
X1790939Y1365623D01*
Y1362291D01*
X1787607Y1358959D01*
X1780942D01*
X1777610Y1362291D01*
X1800936Y1358959D02*
X1807600D01*
X1810932Y1362291D01*
Y1368956D01*
X1807600Y1372288D01*
X1800936D01*
X1797603Y1368956D01*
Y1362291D01*
X1800936Y1358959D01*
X1817597D02*
X1824261D01*
X1820929D01*
Y1378952D01*
X1817597D01*
X1847587D02*
Y1358959D01*
X1837590D01*
X1834258Y1362291D01*
Y1368956D01*
X1837590Y1372288D01*
X1847587D01*
X1864248Y1358959D02*
X1857584D01*
X1854252Y1362291D01*
Y1368956D01*
X1857584Y1372288D01*
X1864248D01*
X1867581Y1368956D01*
Y1365623D01*
X1854252D01*
X1874245Y1372288D02*
Y1358959D01*
Y1365623D01*
X1877578Y1368956D01*
X1880910Y1372288D01*
X1884242D01*
X1697635Y1418952D02*
X1710965D01*
X1704300D01*
Y1398959D01*
X1720961D02*
X1727626D01*
X1730958Y1402291D01*
Y1408956D01*
X1727626Y1412288D01*
X1720961D01*
X1717629Y1408956D01*
Y1402291D01*
X1720961Y1398959D01*
X1737623Y1392294D02*
Y1412288D01*
X1747619D01*
X1750952Y1408956D01*
Y1402291D01*
X1747619Y1398959D01*
X1737623D01*
X1787607Y1418952D02*
X1780942D01*
X1777610Y1415620D01*
Y1402291D01*
X1780942Y1398959D01*
X1787607D01*
X1790939Y1402291D01*
Y1415620D01*
X1787607Y1418952D01*
X1797603Y1412288D02*
X1804268Y1398959D01*
X1810932Y1412288D01*
X1827594Y1398959D02*
X1820929D01*
X1817597Y1402291D01*
Y1408956D01*
X1820929Y1412288D01*
X1827594D01*
X1830926Y1408956D01*
Y1405623D01*
X1817597D01*
X1837590Y1412288D02*
Y1398959D01*
Y1405623D01*
X1840923Y1408956D01*
X1844255Y1412288D01*
X1847587D01*
X1857584Y1398959D02*
X1864248D01*
X1860916D01*
Y1418952D01*
X1857584D01*
X1877578Y1412288D02*
X1884242D01*
X1887574Y1408956D01*
Y1398959D01*
X1877578D01*
X1874245Y1402291D01*
X1877578Y1405623D01*
X1887574D01*
X1894239Y1412288D02*
Y1402291D01*
X1897571Y1398959D01*
X1907568D01*
Y1395627D01*
X1904236Y1392294D01*
X1900903D01*
X1907568Y1398959D02*
Y1412288D01*
X2008884Y1438959D02*
Y1458952D01*
X2015548Y1452288D01*
X2022213Y1458952D01*
Y1438959D01*
X2032210Y1452288D02*
X2038874D01*
X2042207Y1448956D01*
Y1438959D01*
X2032210D01*
X2028878Y1442291D01*
X2032210Y1445623D01*
X2042207D01*
X2052203Y1455620D02*
Y1452288D01*
X2048871D01*
X2055536D01*
X2052203D01*
Y1442291D01*
X2055536Y1438959D01*
X2075529D02*
X2068865D01*
X2065532Y1442291D01*
Y1448956D01*
X2068865Y1452288D01*
X2075529D01*
X2078861Y1448956D01*
Y1445623D01*
X2065532D01*
X2085526Y1452288D02*
Y1438959D01*
Y1445623D01*
X2088858Y1448956D01*
X2092190Y1452288D01*
X2095523D01*
X2105520Y1438959D02*
X2112184D01*
X2108852D01*
Y1452288D01*
X2105520D01*
X2125513D02*
X2132177D01*
X2135510Y1448956D01*
Y1438959D01*
X2125513D01*
X2122181Y1442291D01*
X2125513Y1445623D01*
X2135510D01*
X2142174Y1438959D02*
X2148839D01*
X2145507D01*
Y1458952D01*
X2142174D01*
X2022213Y1215620D02*
X2018881Y1218952D01*
X2012216D01*
X2008884Y1215620D01*
Y1212288D01*
X2012216Y1208956D01*
X2018881D01*
X2022213Y1205623D01*
Y1202291D01*
X2018881Y1198959D01*
X2012216D01*
X2008884Y1202291D01*
X2032210Y1198959D02*
X2038874D01*
X2042207Y1202291D01*
Y1208956D01*
X2038874Y1212288D01*
X2032210D01*
X2028878Y1208956D01*
Y1202291D01*
X2032210Y1198959D01*
X2048871D02*
X2055536D01*
X2052203D01*
Y1218952D01*
X2048871D01*
X2078861D02*
Y1198959D01*
X2068865D01*
X2065532Y1202291D01*
Y1208956D01*
X2068865Y1212288D01*
X2078861D01*
X2095523Y1198959D02*
X2088858D01*
X2085526Y1202291D01*
Y1208956D01*
X2088858Y1212288D01*
X2095523D01*
X2098855Y1208956D01*
Y1205623D01*
X2085526D01*
X2105520Y1212288D02*
Y1198959D01*
Y1205623D01*
X2108852Y1208956D01*
X2112184Y1212288D01*
X2115516D01*
X2145507Y1198959D02*
Y1218952D01*
X2155503D01*
X2158836Y1215620D01*
Y1208956D01*
X2155503Y1205623D01*
X2145507D01*
X2152171D02*
X2158836Y1198959D01*
X2175497D02*
X2168832D01*
X2165500Y1202291D01*
Y1208956D01*
X2168832Y1212288D01*
X2175497D01*
X2178829Y1208956D01*
Y1205623D01*
X2165500D01*
X2185494Y1198959D02*
X2195491D01*
X2198823Y1202291D01*
X2195491Y1205623D01*
X2188826D01*
X2185494Y1208956D01*
X2188826Y1212288D01*
X2198823D01*
X2205487Y1198959D02*
X2212152D01*
X2208819D01*
Y1212288D01*
X2205487D01*
X2222148Y1198959D02*
X2232145D01*
X2235478Y1202291D01*
X2232145Y1205623D01*
X2225481D01*
X2222148Y1208956D01*
X2225481Y1212288D01*
X2235478D01*
X2245474Y1215620D02*
Y1212288D01*
X2242142D01*
X2248807D01*
X2245474D01*
Y1202291D01*
X2248807Y1198959D01*
X2022213Y1255620D02*
X2018881Y1258952D01*
X2012216D01*
X2008884Y1255620D01*
Y1242291D01*
X2012216Y1238959D01*
X2018881D01*
X2022213Y1242291D01*
X2032210Y1238959D02*
X2038874D01*
X2042207Y1242291D01*
Y1248956D01*
X2038874Y1252288D01*
X2032210D01*
X2028878Y1248956D01*
Y1242291D01*
X2032210Y1238959D01*
X2048871Y1232294D02*
Y1252288D01*
X2058868D01*
X2062200Y1248956D01*
Y1242291D01*
X2058868Y1238959D01*
X2048871D01*
X2068865Y1232294D02*
Y1252288D01*
X2078861D01*
X2082194Y1248956D01*
Y1242291D01*
X2078861Y1238959D01*
X2068865D01*
X2098855D02*
X2092190D01*
X2088858Y1242291D01*
Y1248956D01*
X2092190Y1252288D01*
X2098855D01*
X2102187Y1248956D01*
Y1245623D01*
X2088858D01*
X2108852Y1252288D02*
Y1238959D01*
Y1245623D01*
X2112184Y1248956D01*
X2115516Y1252288D01*
X2118849D01*
X2022213Y1298952D02*
X2008884D01*
Y1288956D01*
X2015548D01*
X2008884D01*
Y1278959D01*
X2028878D02*
Y1298952D01*
X2038874D01*
X2042207Y1295620D01*
Y1288956D01*
X2038874Y1285623D01*
X2028878D01*
X2035542D02*
X2042207Y1278959D01*
X2048871Y1288956D02*
X2062200D01*
X2078861Y1278959D02*
Y1298952D01*
X2068865Y1288956D01*
X2082194D01*
X2022213Y1335620D02*
X2018881Y1338952D01*
X2012216D01*
X2008884Y1335620D01*
Y1322291D01*
X2012216Y1318959D01*
X2018881D01*
X2022213Y1322291D01*
X2032210Y1318959D02*
X2038874D01*
X2042207Y1322291D01*
Y1328956D01*
X2038874Y1332288D01*
X2032210D01*
X2028878Y1328956D01*
Y1322291D01*
X2032210Y1318959D01*
X2048871Y1312294D02*
Y1332288D01*
X2058868D01*
X2062200Y1328956D01*
Y1322291D01*
X2058868Y1318959D01*
X2048871D01*
X2068865Y1312294D02*
Y1332288D01*
X2078861D01*
X2082194Y1328956D01*
Y1322291D01*
X2078861Y1318959D01*
X2068865D01*
X2098855D02*
X2092190D01*
X2088858Y1322291D01*
Y1328956D01*
X2092190Y1332288D01*
X2098855D01*
X2102187Y1328956D01*
Y1325623D01*
X2088858D01*
X2108852Y1332288D02*
Y1318959D01*
Y1325623D01*
X2112184Y1328956D01*
X2115516Y1332288D01*
X2118849D01*
X2022213Y1375620D02*
X2018881Y1378952D01*
X2012216D01*
X2008884Y1375620D01*
Y1372288D01*
X2012216Y1368956D01*
X2018881D01*
X2022213Y1365623D01*
Y1362291D01*
X2018881Y1358959D01*
X2012216D01*
X2008884Y1362291D01*
X2032210Y1358959D02*
X2038874D01*
X2042207Y1362291D01*
Y1368956D01*
X2038874Y1372288D01*
X2032210D01*
X2028878Y1368956D01*
Y1362291D01*
X2032210Y1358959D01*
X2048871D02*
X2055536D01*
X2052203D01*
Y1378952D01*
X2048871D01*
X2078861D02*
Y1358959D01*
X2068865D01*
X2065532Y1362291D01*
Y1368956D01*
X2068865Y1372288D01*
X2078861D01*
X2095523Y1358959D02*
X2088858D01*
X2085526Y1362291D01*
Y1368956D01*
X2088858Y1372288D01*
X2095523D01*
X2098855Y1368956D01*
Y1365623D01*
X2085526D01*
X2105520Y1372288D02*
Y1358959D01*
Y1365623D01*
X2108852Y1368956D01*
X2112184Y1372288D01*
X2115516D01*
X2145507Y1358959D02*
Y1378952D01*
X2155503D01*
X2158836Y1375620D01*
Y1368956D01*
X2155503Y1365623D01*
X2145507D01*
X2152171D02*
X2158836Y1358959D01*
X2175497D02*
X2168832D01*
X2165500Y1362291D01*
Y1368956D01*
X2168832Y1372288D01*
X2175497D01*
X2178829Y1368956D01*
Y1365623D01*
X2165500D01*
X2185494Y1358959D02*
X2195491D01*
X2198823Y1362291D01*
X2195491Y1365623D01*
X2188826D01*
X2185494Y1368956D01*
X2188826Y1372288D01*
X2198823D01*
X2205487Y1358959D02*
X2212152D01*
X2208819D01*
Y1372288D01*
X2205487D01*
X2222148Y1358959D02*
X2232145D01*
X2235478Y1362291D01*
X2232145Y1365623D01*
X2225481D01*
X2222148Y1368956D01*
X2225481Y1372288D01*
X2235478D01*
X2245474Y1375620D02*
Y1372288D01*
X2242142D01*
X2248807D01*
X2245474D01*
Y1362291D01*
X2248807Y1358959D01*
X2296807Y1458952D02*
X2310136D01*
X2303471D01*
Y1438959D01*
X2316800Y1458952D02*
Y1438959D01*
Y1448956D01*
X2320132Y1452288D01*
X2326797D01*
X2330129Y1448956D01*
Y1438959D01*
X2336794D02*
X2343458D01*
X2340126D01*
Y1452288D01*
X2336794D01*
X2366784D02*
X2356787D01*
X2353455Y1448956D01*
Y1442291D01*
X2356787Y1438959D01*
X2366784D01*
X2373449D02*
Y1458952D01*
Y1445623D02*
X2383445Y1452288D01*
X2373449Y1445623D02*
X2383445Y1438959D01*
X2393442D02*
Y1452288D01*
X2403439D01*
X2406771Y1448956D01*
Y1438959D01*
X2423432D02*
X2416768D01*
X2413436Y1442291D01*
Y1448956D01*
X2416768Y1452288D01*
X2423432D01*
X2426765Y1448956D01*
Y1445623D01*
X2413436D01*
X2433429Y1438959D02*
X2443426D01*
X2446758Y1442291D01*
X2443426Y1445623D01*
X2436761D01*
X2433429Y1448956D01*
X2436761Y1452288D01*
X2446758D01*
X2453423Y1438959D02*
X2463420D01*
X2466752Y1442291D01*
X2463420Y1445623D01*
X2456755D01*
X2453423Y1448956D01*
X2456755Y1452288D01*
X2466752D01*
X2296807Y1215620D02*
X2300139Y1218952D01*
X2306803D01*
X2310136Y1215620D01*
Y1202291D01*
X2306803Y1198959D01*
X2300139D01*
X2296807Y1202291D01*
Y1215620D01*
X2316800Y1198959D02*
Y1202291D01*
X2320132D01*
Y1198959D01*
X2316800D01*
X2333461Y1215620D02*
X2336794Y1218952D01*
X2343458D01*
X2346790Y1215620D01*
Y1202291D01*
X2343458Y1198959D01*
X2336794D01*
X2333461Y1202291D01*
Y1215620D01*
X2353455Y1198959D02*
X2360119D01*
X2356787D01*
Y1218952D01*
X2353455Y1215620D01*
X2370116D02*
X2373448Y1218952D01*
X2380113D01*
X2383445Y1215620D01*
Y1202291D01*
X2380113Y1198959D01*
X2373448D01*
X2370116Y1202291D01*
Y1215620D01*
X2390110Y1198959D02*
Y1212288D01*
X2393442D01*
X2396774Y1208956D01*
Y1198959D01*
Y1208956D01*
X2400107Y1212288D01*
X2403439Y1208956D01*
Y1198959D01*
X2410103D02*
Y1212288D01*
X2413436D01*
X2416768Y1208956D01*
Y1198959D01*
Y1208956D01*
X2420100Y1212288D01*
X2423432Y1208956D01*
Y1198959D01*
X2296807Y1255620D02*
X2300139Y1258952D01*
X2306803D01*
X2310136Y1255620D01*
Y1242291D01*
X2306803Y1238959D01*
X2300139D01*
X2296807Y1242291D01*
Y1255620D01*
X2316800Y1238959D02*
Y1242291D01*
X2320132D01*
Y1238959D01*
X2316800D01*
X2333461Y1255620D02*
X2336794Y1258952D01*
X2343458D01*
X2346790Y1255620D01*
Y1242291D01*
X2343458Y1238959D01*
X2336794D01*
X2333461Y1242291D01*
Y1255620D01*
X2353455D02*
X2356787Y1258952D01*
X2363452D01*
X2366784Y1255620D01*
Y1252288D01*
X2363452Y1248956D01*
X2360119D01*
X2363452D01*
X2366784Y1245623D01*
Y1242291D01*
X2363452Y1238959D01*
X2356787D01*
X2353455Y1242291D01*
X2386778Y1258952D02*
X2373449D01*
Y1248956D01*
X2380113Y1252288D01*
X2383445D01*
X2386778Y1248956D01*
Y1242291D01*
X2383445Y1238959D01*
X2376781D01*
X2373449Y1242291D01*
X2393442Y1238959D02*
Y1252288D01*
X2396774D01*
X2400107Y1248956D01*
Y1238959D01*
Y1248956D01*
X2403439Y1252288D01*
X2406771Y1248956D01*
Y1238959D01*
X2413436D02*
Y1252288D01*
X2416768D01*
X2420100Y1248956D01*
Y1238959D01*
Y1248956D01*
X2423432Y1252288D01*
X2426765Y1248956D01*
Y1238959D01*
X2296807Y1278959D02*
X2303471D01*
X2300139D01*
Y1298952D01*
X2296807Y1295620D01*
X2313468Y1278959D02*
Y1282291D01*
X2316800D01*
Y1278959D01*
X2313468D01*
X2343458Y1298952D02*
X2330129D01*
Y1288956D01*
X2336794Y1292288D01*
X2340126D01*
X2343458Y1288956D01*
Y1282291D01*
X2340126Y1278959D01*
X2333461D01*
X2330129Y1282291D01*
X2350123Y1295620D02*
X2353455Y1298952D01*
X2360119D01*
X2363452Y1295620D01*
Y1282291D01*
X2360119Y1278959D01*
X2353455D01*
X2350123Y1282291D01*
Y1295620D01*
X2370116D02*
X2373448Y1298952D01*
X2380113D01*
X2383445Y1295620D01*
Y1282291D01*
X2380113Y1278959D01*
X2373448D01*
X2370116Y1282291D01*
Y1295620D01*
X2390110Y1278959D02*
Y1292288D01*
X2393442D01*
X2396774Y1288956D01*
Y1278959D01*
Y1288956D01*
X2400107Y1292288D01*
X2403439Y1288956D01*
Y1278959D01*
X2410103D02*
Y1292288D01*
X2413436D01*
X2416768Y1288956D01*
Y1278959D01*
Y1288956D01*
X2420100Y1292288D01*
X2423432Y1288956D01*
Y1278959D01*
X2296807Y1335620D02*
X2300139Y1338952D01*
X2306803D01*
X2310136Y1335620D01*
Y1322291D01*
X2306803Y1318959D01*
X2300139D01*
X2296807Y1322291D01*
Y1335620D01*
X2316800Y1318959D02*
Y1322291D01*
X2320132D01*
Y1318959D01*
X2316800D01*
X2333461Y1335620D02*
X2336794Y1338952D01*
X2343458D01*
X2346790Y1335620D01*
Y1322291D01*
X2343458Y1318959D01*
X2336794D01*
X2333461Y1322291D01*
Y1335620D01*
X2353455D02*
X2356787Y1338952D01*
X2363452D01*
X2366784Y1335620D01*
Y1332288D01*
X2363452Y1328956D01*
X2360119D01*
X2363452D01*
X2366784Y1325623D01*
Y1322291D01*
X2363452Y1318959D01*
X2356787D01*
X2353455Y1322291D01*
X2386778Y1338952D02*
X2373449D01*
Y1328956D01*
X2380113Y1332288D01*
X2383445D01*
X2386778Y1328956D01*
Y1322291D01*
X2383445Y1318959D01*
X2376781D01*
X2373449Y1322291D01*
X2393442Y1318959D02*
Y1332288D01*
X2396774D01*
X2400107Y1328956D01*
Y1318959D01*
Y1328956D01*
X2403439Y1332288D01*
X2406771Y1328956D01*
Y1318959D01*
X2413436D02*
Y1332288D01*
X2416768D01*
X2420100Y1328956D01*
Y1318959D01*
Y1328956D01*
X2423432Y1332288D01*
X2426765Y1328956D01*
Y1318959D01*
X2296807Y1375620D02*
X2300139Y1378952D01*
X2306803D01*
X2310136Y1375620D01*
Y1362291D01*
X2306803Y1358959D01*
X2300139D01*
X2296807Y1362291D01*
Y1375620D01*
X2316800Y1358959D02*
Y1362291D01*
X2320132D01*
Y1358959D01*
X2316800D01*
X2333461Y1375620D02*
X2336794Y1378952D01*
X2343458D01*
X2346790Y1375620D01*
Y1362291D01*
X2343458Y1358959D01*
X2336794D01*
X2333461Y1362291D01*
Y1375620D01*
X2353455Y1358959D02*
X2360119D01*
X2356787D01*
Y1378952D01*
X2353455Y1375620D01*
X2370116D02*
X2373448Y1378952D01*
X2380113D01*
X2383445Y1375620D01*
Y1362291D01*
X2380113Y1358959D01*
X2373448D01*
X2370116Y1362291D01*
Y1375620D01*
X2390110Y1358959D02*
Y1372288D01*
X2393442D01*
X2396774Y1368956D01*
Y1358959D01*
Y1368956D01*
X2400107Y1372288D01*
X2403439Y1368956D01*
Y1358959D01*
X2410103D02*
Y1372288D01*
X2413436D01*
X2416768Y1368956D01*
Y1358959D01*
Y1368956D01*
X2420100Y1372288D01*
X2423432Y1368956D01*
Y1358959D01*
D66*
X1592500Y468429D02*
G03*
X1663211Y397718I35355J-35355D01*
G01*
Y1074997D02*
G03*
X1592500Y1004286I-35355J-35355D01*
G01*
X2269779D02*
G03*
X2199069Y1074997I-35355J35355D01*
G01*
Y397718D02*
G03*
X2269779Y468429I35355J35355D01*
G01*
X2199069Y397718D02*
G03*
X2269779Y468429I35355J35355D01*
G01*
Y1004286D02*
G03*
X2199069Y1074997I-35355J35355D01*
G01*
X1663211D02*
G03*
X1592500Y1004286I-35355J-35355D01*
G01*
Y468429D02*
G03*
X1663211Y397718I35355J-35355D01*
G01*
X1691495Y426002D02*
X1726850Y461357D01*
X2135429D01*
X1663211Y397718D02*
X1691495Y426002D01*
X1592500Y468429D02*
X1620784Y496713D01*
X1656140Y532068D01*
Y940647D01*
X1620784Y976002D02*
X1656140Y940647D01*
X1592500Y1004286D02*
X1620784Y976002D01*
X1663211Y1074997D02*
X1691495Y1046713D01*
X1726850Y1011357D01*
X2135429D01*
X2170784Y1046713D01*
X2199069Y1074997D01*
X2206140Y940647D02*
X2241495Y976002D01*
X2269779Y1004286D01*
X2206140Y532068D02*
Y940647D01*
Y532068D02*
X2241495Y496713D01*
X2269779Y468429D01*
X2170784Y426002D02*
X2199069Y397718D01*
X2135429Y461357D02*
X2170784Y426002D01*
X2135429Y461357D02*
X2170784Y426002D01*
X2199069Y397718D01*
X2241495Y496713D02*
X2269779Y468429D01*
X2206140Y532068D02*
X2241495Y496713D01*
X2206140Y532068D02*
Y940647D01*
X2241495Y976002D02*
X2269779Y1004286D01*
X2206140Y940647D02*
X2241495Y976002D01*
X2170784Y1046713D02*
X2199069Y1074997D01*
X2135429Y1011357D02*
X2170784Y1046713D01*
X1726850Y1011357D02*
X2135429D01*
X1691495Y1046713D02*
X1726850Y1011357D01*
X1663211Y1074997D02*
X1691495Y1046713D01*
X1592500Y1004286D02*
X1620784Y976002D01*
X1656140Y940647D01*
Y532068D02*
Y940647D01*
X1620784Y496713D02*
X1656140Y532068D01*
X1592500Y468429D02*
X1620784Y496713D01*
X1663211Y397718D02*
X1691495Y426002D01*
X1726850Y461357D02*
X2135429D01*
X1691495Y426002D02*
X1726850Y461357D01*
M02*
