G04*
G04 #@! TF.GenerationSoftware,Altium Limited,Altium Designer,20.2.3 (150)*
G04*
G04 Layer_Color=8388736*
%FSLAX44Y44*%
%MOMM*%
G71*
G04*
G04 #@! TF.SameCoordinates,CE7551EE-2CAC-49A0-A575-A5F11EB50F32*
G04*
G04*
G04 #@! TF.FilePolarity,Negative*
G04*
G01*
G75*
%ADD32R,1.4132X0.7932*%
G04:AMPARAMS|DCode=33|XSize=1.1032mm|YSize=3.0032mm|CornerRadius=0.1196mm|HoleSize=0mm|Usage=FLASHONLY|Rotation=90.000|XOffset=0mm|YOffset=0mm|HoleType=Round|Shape=RoundedRectangle|*
%AMROUNDEDRECTD33*
21,1,1.1032,2.7640,0,0,90.0*
21,1,0.8640,3.0032,0,0,90.0*
1,1,0.2392,1.3820,0.4320*
1,1,0.2392,1.3820,-0.4320*
1,1,0.2392,-1.3820,-0.4320*
1,1,0.2392,-1.3820,0.4320*
%
%ADD33ROUNDEDRECTD33*%
%ADD34R,5.2032X2.7032*%
G04:AMPARAMS|DCode=35|XSize=0.3616mm|YSize=1.2016mm|CornerRadius=0.0599mm|HoleSize=0mm|Usage=FLASHONLY|Rotation=0.000|XOffset=0mm|YOffset=0mm|HoleType=Round|Shape=RoundedRectangle|*
%AMROUNDEDRECTD35*
21,1,0.3616,1.0818,0,0,0.0*
21,1,0.2418,1.2016,0,0,0.0*
1,1,0.1198,0.1209,-0.5409*
1,1,0.1198,-0.1209,-0.5409*
1,1,0.1198,-0.1209,0.5409*
1,1,0.1198,0.1209,0.5409*
%
%ADD35ROUNDEDRECTD35*%
%ADD36R,3.8016X3.8016*%
G04:AMPARAMS|DCode=37|XSize=0.3616mm|YSize=1.2016mm|CornerRadius=0.0599mm|HoleSize=0mm|Usage=FLASHONLY|Rotation=270.000|XOffset=0mm|YOffset=0mm|HoleType=Round|Shape=RoundedRectangle|*
%AMROUNDEDRECTD37*
21,1,0.3616,1.0818,0,0,270.0*
21,1,0.2418,1.2016,0,0,270.0*
1,1,0.1198,-0.5409,-0.1209*
1,1,0.1198,-0.5409,0.1209*
1,1,0.1198,0.5409,0.1209*
1,1,0.1198,0.5409,-0.1209*
%
%ADD37ROUNDEDRECTD37*%
%ADD38R,0.4016X0.6016*%
%ADD39R,0.8516X0.8016*%
%ADD40R,0.6416X0.7016*%
%ADD41R,0.6616X0.7316*%
%ADD42R,0.6416X0.7016*%
%ADD43R,0.7366X0.7366*%
%ADD44R,1.2616X1.5716*%
%ADD45R,0.7316X0.6616*%
%ADD46R,0.6016X0.4016*%
%ADD47C,1.6112*%
%ADD48R,1.6112X1.6112*%
%ADD49C,3.5192*%
%ADD50C,1.5032*%
%ADD51R,1.6112X1.6112*%
%ADD52C,6.7032*%
%ADD53C,0.8032*%
D32*
X1945310Y657460D02*
D03*
Y666960D02*
D03*
Y676460D02*
D03*
X1920210D02*
D03*
Y657460D02*
D03*
D33*
X2055500Y791000D02*
D03*
Y746000D02*
D03*
Y721000D02*
D03*
Y766000D02*
D03*
D34*
X2078000Y683500D02*
D03*
Y828500D02*
D03*
D35*
X1901380Y771310D02*
D03*
Y715010D02*
D03*
X1906380Y771310D02*
D03*
X1911380D02*
D03*
X1916380D02*
D03*
X1921380D02*
D03*
X1926380D02*
D03*
X1931380D02*
D03*
X1936380D02*
D03*
X1941380D02*
D03*
Y715010D02*
D03*
X1936380D02*
D03*
X1931380D02*
D03*
X1926380D02*
D03*
X1921380D02*
D03*
X1916380D02*
D03*
X1911380D02*
D03*
X1906380D02*
D03*
D36*
X1921380Y743160D02*
D03*
D37*
X1949530Y763160D02*
D03*
Y758160D02*
D03*
Y753160D02*
D03*
Y748160D02*
D03*
Y743160D02*
D03*
Y738160D02*
D03*
Y733160D02*
D03*
Y728160D02*
D03*
Y723160D02*
D03*
X1893230D02*
D03*
Y728160D02*
D03*
Y733160D02*
D03*
Y738160D02*
D03*
Y743160D02*
D03*
Y748160D02*
D03*
Y753160D02*
D03*
Y758160D02*
D03*
Y763160D02*
D03*
D38*
X1893000Y678000D02*
D03*
Y668000D02*
D03*
X1875000Y678000D02*
D03*
Y668000D02*
D03*
D39*
X1928750Y821000D02*
D03*
X1915250D02*
D03*
Y831000D02*
D03*
X1928750D02*
D03*
D40*
X1998680Y730000D02*
D03*
X2007320D02*
D03*
X1998360Y756000D02*
D03*
X2007000D02*
D03*
D41*
X1999890Y712040D02*
D03*
X2008590D02*
D03*
D42*
X1999940Y697040D02*
D03*
X2008540D02*
D03*
X1927060Y691960D02*
D03*
X1918460D02*
D03*
D43*
X1854500Y806000D02*
D03*
X1845610D02*
D03*
X1926445Y846250D02*
D03*
X1917555D02*
D03*
D44*
X1892000Y826000D02*
D03*
X1874500D02*
D03*
X1951500D02*
D03*
X1969000D02*
D03*
D45*
X2003970Y668700D02*
D03*
Y660000D02*
D03*
X1988000Y668350D02*
D03*
Y659650D02*
D03*
D46*
X1998000Y771000D02*
D03*
X2008000D02*
D03*
X1998000Y789000D02*
D03*
X2008000D02*
D03*
X1856000Y792000D02*
D03*
X1846000D02*
D03*
X1856000Y775000D02*
D03*
X1846000D02*
D03*
X1856000Y749000D02*
D03*
X1846000D02*
D03*
X1856000Y732000D02*
D03*
X1846000D02*
D03*
X1856000Y709000D02*
D03*
X1846000D02*
D03*
X1856000Y692000D02*
D03*
X1846000D02*
D03*
D47*
X1929000Y572000D02*
D03*
X1904000D02*
D03*
X1884000D02*
D03*
X1859000Y916000D02*
D03*
X1884000D02*
D03*
X1904000D02*
D03*
X1753000Y801000D02*
D03*
Y826000D02*
D03*
Y846000D02*
D03*
X1754000Y610000D02*
D03*
Y635000D02*
D03*
Y655000D02*
D03*
D48*
X1859000Y572000D02*
D03*
X1929000Y916000D02*
D03*
D49*
X1959700Y550000D02*
D03*
X1828300D02*
D03*
Y938000D02*
D03*
X1959700D02*
D03*
X1731000Y770300D02*
D03*
Y901700D02*
D03*
X1732000Y579300D02*
D03*
Y710700D02*
D03*
D50*
X2094000Y731000D02*
D03*
Y781000D02*
D03*
D51*
X1753000Y871000D02*
D03*
X1754000Y680000D02*
D03*
D52*
X1627856Y1039642D02*
D03*
X2234424D02*
D03*
Y433073D02*
D03*
X1627856D02*
D03*
D53*
X1834000Y749000D02*
D03*
X1859500Y821000D02*
D03*
X1905000Y679000D02*
D03*
X1921380Y743160D02*
D03*
X1988000Y681000D02*
D03*
X1987000Y697000D02*
D03*
X1984000Y821000D02*
D03*
X2004240Y681040D02*
D03*
X2021000Y756000D02*
D03*
X2083700Y656000D02*
D03*
X1865000Y731000D02*
D03*
X1859500Y831000D02*
D03*
X1905000Y692000D02*
D03*
X1938760Y691960D02*
D03*
X1960000Y667000D02*
D03*
X1963000Y750000D02*
D03*
X1987000Y712000D02*
D03*
Y730000D02*
D03*
X1984000Y831000D02*
D03*
X2021000Y768446D02*
D03*
X2021000Y789000D02*
D03*
Y730000D02*
D03*
X2083700Y853900D02*
D03*
X1834055Y806000D02*
D03*
X1953523Y784540D02*
D03*
X1889000Y786000D02*
D03*
X1971000Y760000D02*
D03*
X2057100Y657000D02*
D03*
X2097000Y656000D02*
D03*
X2070400D02*
D03*
X1833000Y709000D02*
D03*
X1874000Y651000D02*
D03*
X1833000Y692000D02*
D03*
X1832000Y792000D02*
D03*
Y774000D02*
D03*
X1834000Y732000D02*
D03*
X1893000Y651000D02*
D03*
X1911000Y753000D02*
D03*
X1930000D02*
D03*
X1911000Y734000D02*
D03*
X1931000Y733000D02*
D03*
X2034000Y791000D02*
D03*
X2057100Y853900D02*
D03*
X2097000D02*
D03*
X2070400D02*
D03*
M02*
