G04*
G04 #@! TF.GenerationSoftware,Altium Limited,Altium Designer,20.2.3 (150)*
G04*
G04 Layer_Color=32896*
%FSLAX44Y44*%
%MOMM*%
G71*
G04*
G04 #@! TF.SameCoordinates,CE7551EE-2CAC-49A0-A575-A5F11EB50F32*
G04*
G04*
G04 #@! TF.FilePolarity,Positive*
G04*
G01*
G75*
%ADD14C,0.2540*%
%ADD15C,0.4000*%
%ADD65R,16.0000X3.0000*%
D14*
X2112303Y480079D02*
Y490236D01*
X2114843Y492775D01*
X2119921D01*
X2122460Y490236D01*
Y480079D01*
X2119921Y477540D01*
X2114843D01*
X2117382Y482618D02*
X2112303Y477540D01*
X2114843D02*
X2112303Y480079D01*
X2107225Y477540D02*
Y480079D01*
X2104686D01*
Y477540D01*
X2107225D01*
X2084372Y490236D02*
X2086911Y492775D01*
X2091990D01*
X2094529Y490236D01*
Y480079D01*
X2091990Y477540D01*
X2086911D01*
X2084372Y480079D01*
X2079294Y477540D02*
Y480079D01*
X2076755D01*
Y477540D01*
X2079294D01*
D15*
X2091003Y982332D02*
Y1002326D01*
X2101000Y992329D01*
X2087671D01*
X2061013Y982332D02*
Y1002326D01*
X2051016D01*
X2047684Y998994D01*
Y992329D01*
X2051016Y988997D01*
X2061013D01*
X2037687Y982332D02*
X2031023D01*
X2027690Y985665D01*
Y992329D01*
X2031023Y995661D01*
X2037687D01*
X2041019Y992329D01*
Y985665D01*
X2037687Y982332D01*
X2021026Y995661D02*
Y982332D01*
Y988997D01*
X2017693Y992329D01*
X2014361Y995661D01*
X2011029D01*
X1997700Y998994D02*
Y995661D01*
X2001032D01*
X1994368D01*
X1997700D01*
Y985665D01*
X1994368Y982332D01*
X1964377Y1002326D02*
Y985665D01*
X1961045Y982332D01*
X1954381D01*
X1951048Y985665D01*
Y1002326D01*
X1931055Y998994D02*
X1934387Y1002326D01*
X1941052D01*
X1944384Y998994D01*
Y995661D01*
X1941052Y992329D01*
X1934387D01*
X1931055Y988997D01*
Y985665D01*
X1934387Y982332D01*
X1941052D01*
X1944384Y985665D01*
X1924390Y1002326D02*
Y982332D01*
X1914393D01*
X1911061Y985665D01*
Y988997D01*
X1914393Y992329D01*
X1924390D01*
X1914393D01*
X1911061Y995661D01*
Y998994D01*
X1914393Y1002326D01*
X1924390D01*
X1884403D02*
Y982332D01*
Y992329D01*
X1871074D01*
Y1002326D01*
Y982332D01*
X1864410Y995661D02*
Y985665D01*
X1861077Y982332D01*
X1851080D01*
Y995661D01*
X1844416Y1002326D02*
Y982332D01*
X1834419D01*
X1831087Y985665D01*
Y988997D01*
Y992329D01*
X1834419Y995661D01*
X1844416D01*
X1824422Y979000D02*
X1811093D01*
X1804429Y1002326D02*
Y988997D01*
X1797764Y982332D01*
X1791100Y988997D01*
Y1002326D01*
X1784435Y982332D02*
X1777771D01*
X1781103D01*
Y1002326D01*
X1784435Y998994D01*
X1767774Y1002326D02*
X1761110D01*
X1764442D01*
Y982332D01*
X1767774D01*
X1761110D01*
X1751113D02*
X1744448D01*
X1747780D01*
Y1002326D01*
X1751113Y998994D01*
D65*
X1990000Y485000D02*
D03*
M02*
