M48
;Layer_Color=9474304
;FILE_FORMAT=2:5
INCH,LZ
;TYPE=PLATED
T1F00S00C0.01181
T2F00S00C0.03543
T3F00S00C0.09055
T4F00S00C0.15748
;TYPE=NON_PLATED
T5F00S00C0.05118
%
T01
X0782677Y026811
X0789071Y0268126
X0782283Y027441
Y0280315
Y0287402
X0795669
Y0297638
X0795669Y0302538
X0795669Y031063
X0800787Y0311417
X0809882Y0258661
X0815118Y0258268
X0820354
X0825591
X0771654Y0262598
X0763291Y0272425
X075Y0272441
Y0267323
X0745276Y0256299
X0737795
X0721654Y0272441
Y0279134
X0722047Y0288189
Y0294882
X072126Y0304724
Y0311811
X0743701Y0309449
X0752362Y0296457
X0759842
X0756449Y0292583
X0752362Y0288976
X0760236Y0288583
X0772835Y0295276
X0775984Y0299213
X0769103Y0308874
X0734252Y0287795
X0732087Y0323228
Y0327165
X0722069Y0317323
X0781102Y0323228
Y0327165
X0809882Y0336181
X0815118
X0820354
X0825591
T02
X0690551Y0240158
Y025
Y0257874
Y0267717
X073189Y0225197
X0741732
X0749606
X0759449
Y036063
X0749606
X0741732
X073189
X0690158Y0342913
Y0333071
Y0325197
Y0315354
T03
X068189Y0228071
X0719803Y0216535
X0771535
X068189Y0279803
X0681496Y0303268
Y0355
X0719803Y0369291
X0771535
T04
X0879694Y0170501
X0640888
Y0409308
X0879694
T05
X0824409Y0287795
Y030748
M30
